<svg height="32" viewBox="0 0 32 32" width="32" xmlns="http://www.w3.org/2000/svg" xmlns:xlink="http://www.w3.org/1999/xlink"><linearGradient id="a" x1="50%" x2="50%" y1="0%" y2="100%"><stop offset="0" stop-color="#753eef"/><stop offset="1" stop-color="#3c1b7b"/></linearGradient><g fill="none" transform="translate(2)"><path d="m27.3991596 23.8402201v-15.67428636l-13.5256144-7.82336964-13.49806734 7.82336964v15.67428636l13.49806734 7.8233696z" fill="#fff"/><path d="m1.59142575 8.91869033 6.34730117-3.66457891c.33720925.28257454.68571736.55584698 1.04877219.81565498.30236509.21640553.6135598.42387956.92800198.62749731.08650121-.05500626.17273181-.10997876.26160111-.16522182.9175487-.57052916 1.8581013-1.09508422 2.7676664-1.60238662.0911359-.05081134.1786858-.10030312.2681977-.15050589-.3591305-.20716974-.7064208-.41136291-1.0378114-.61328931-.3943129-.24028858-.7618331-.47780363-1.1129123-.71511505l2.7941885-1.61324567.0000338-.00003375 2.7934088 1.61279593c-.8202557.55388509-1.7530955 1.10905542-2.7933088 1.69643229-.0000349.00002443-.0001.00002443-.0001338.00005818-.1989155.11227869-.4002667.22543767-.6062527.34028742-.9058102.50520494-1.8379393 1.02512523-2.7418887 1.58719767-1.86232996 1.15797236-3.60121718 2.49716818-4.7457937 4.25273321-.84590124 1.2974775-1.36879651 2.8213098-1.36879651 4.6730803 0 1.8547525.52282996 3.3782492 1.37092754 4.6717417.82150789 1.2529652 1.94812101 2.2901341 3.20643089 3.198955.30209472.2181982.61322153.4270936.9277991.6319285.08836177-.0553781.17679128-.1103843.26511928-.1646807.8915341-.5477278 1.7919315-1.0465048 2.6627284-1.5288076.1309189-.0724957.2565605-.1431314.3845362-.2145443-.3597732-.2072378-.707571-.4117353-1.0394014-.6144396-1.563111-.9548623-2.79990565-1.8775194-3.61282068-2.9217586-.6978283-.8964394-1.08439435-1.8821877-1.08439435-3.0583942 0-1.1750904.38413021-2.1626655 1.077696-3.0623526l5.30411063 3.062285v.0000338.4910643h-.1237472l-1.9805968 3.436943h2.104344v3.034342c-.2371424.1333888-.4787844.2681978-.7259402.4051048-.8714059.4826746-1.7672702.9794223-2.6381686 1.5144646-.91233882.5605161-1.79233725 1.1675124-2.59165298 1.8418636l-6.30924357-3.6426246v-14.16238255zm16.76683175 11.00932547c-1.10219 1.0371452-2.6431767 1.9884217-4.5016841 3.0342841-.0000349.0000245-.0001001.0000245-.0001338.0000582v-3.0343423zm-7.3379209 8.596907c.8302018-.5632553 1.7776556-1.125564 2.836103-1.7198075v3.3572079zm8.7534269-23.27108251 6.3477405 3.66485935v.00005818l-4.1703599 2.40775808c-.8254656-1.2673087-1.9615842-2.31699386-3.2302801-3.23823023-.3011473-.21863796-.6112256-.42814196-.9247546-.63365411-.0875497.05487011-.1750656.10943709-.2625478.16325935-.8750597.53852684-1.7915596 1.04971985-2.6002124 1.50073018-.148341.08271244-.290728.16332742-.4354153.24472029.3571684.20757568.7023951.41251264 1.0323311.61565719 1.5724818.96815693 2.8116445 1.90441343 3.6259468 2.96116913l-5.2997807 3.0598154-5.30410906-3.0622948c1.08534155-1.4079366 2.93474886-2.5988927 5.30411066-3.94282401.0000349-.00002385.0000998-.00002385.0001338-.00005818.2514859-.14265775.5085878-.28697251.7714067-.43358836.8510068-.474624 1.7254235-.96301557 2.5768359-1.4869952.9029349-.55567826 1.7748145-1.15601048 2.5689544-1.82038226zm7.9390988 2.74615098v15.99988193l-.000135.0000675-13.8562962 8.0000593-13.85632986-8.0000593-.00010124-.0000675v-15.99988193-.00010123l13.8564311-7.99982255.0001014-.00006749 13.8563298 7.99989004zm-.6693784.38646458v-.00016872l-13.1869514-7.61345978-.0001014.00006749-13.18705335 7.61339229v.00016872 15.22702085l.00006807.0000337 13.18698528 7.6135936.0001014.0000692 13.1868839-7.6136628.0000675-.0000337zm-10.3499012 20.13793395-2.8371516 1.6379654.0000014-3.357241c.0000349-.0000245.0000999-.0000245.0001338-.0000582.2110263-.1184698.4250974-.2378863.6440736-.3591983.8986044-.4977285 1.8231898-1.00997 2.7201367-1.5639226 1.8528915-1.1443392 3.5847425-2.4687185 4.7263076-4.2107855.1571706-.2398487.3042944-.4868018.4377845-.7431255.5220177-1.0023584.8548631-2.1347564.9215738-3.4369429h-3.0928332-5.5066111-.8505671v-.4910643-.0000338l5.2997807-3.0598154c.4376477.5679919.7581457 1.1691364.9291427 1.8324251h3.1505454c-.176352-1.3135869-.6341958-2.447338-1.2847651-3.4460769l4.1703599-2.40775808v14.16241688l-.0000582.0000337-6.3087697 3.6423872c-.3447867-.2913035-.7017862-.5724573-1.0740422-.8392686-.3008093-.2156265-.6105158-.4221877-.9235369-.6248239-.0888355.0559535-.177671.1118383-.2647133.1655936-.9114597.5628835-1.8440285 1.0794886-2.7459144 1.5790441-.1025024.0567657-.2009792.11211-.3015194.1681309.3606527.2070348.7092962.4111942 1.0419387.6133568.4078107.2478668.7872385.49323 1.1487034.7387613z" fill="url(#a)"/></g></svg>