<svg height="22" viewBox="0 0 53 22" width="53" xmlns="http://www.w3.org/2000/svg" xmlns:xlink="http://www.w3.org/1999/xlink"><radialGradient id="a" cx="49.246854%" cy="48.768464%" gradientTransform="matrix(.996581 0 0 1 .001684 0)" r="70.807759%"><stop offset="0" stop-color="#f9c635"/><stop offset=".52" stop-color="#f9c635"/><stop offset=".71" stop-color="#f7b832"/><stop offset="1" stop-color="#f7b832"/></radialGradient><radialGradient id="b" cx="38.046913%" cy="49.605309%" gradientTransform="matrix(.417332 0 0 1 .221687 0)" r="156.793696%"><stop offset="0" stop-color="#265581"/><stop offset=".24" stop-color="#265581"/><stop offset=".61" stop-color="#0086b8"/><stop offset="1" stop-color="#0086b8"/></radialGradient><g fill="none" fill-rule="evenodd"><g fill="#265581" fill-rule="nonzero"><path d="m9.48421053 13.7205634c0 1.5170704-1.04884211 2.2532958-3.16884211 2.2532958h-6.31536842v-10.19560568h6.20378947c2.12 0 3.16884211.73622535 3.16884211 2.23098592v.91470422c0 .4908169-.17852632.89239437-.53557895 1.20473244-.37936842.2900281-.87031579.4461971-1.51747368.468507 1.45052631.0669296 2.16463158.6916056 2.16463158 1.9186479zm-2.18694737-.9816338c0-.4015775-.08926316-.6916057-.29010527-.8700845-.2008421-.1784789-.53557894-.2677183-1.00421052-.2677183h-3.52589474v2.2756056h3.52589474c.46863158 0 .80336842-.0892394 1.00421052-.2454085.20084211-.1784788.29010527-.468507.29010527-.8923943zm-1.38357895-3.03414087c.46863158 0 .80336842-.08923943.98189474-.22309859.17852631-.15616901.29010526-.42388732.29010526-.80315493 0-.3792676-.11157895-.64698591-.29010526-.78084507-.17852632-.15616901-.51326316-.22309859-.98189474-.22309859h-3.43663158v2.03019718z"/><path d="m52.7098947 15.9738592h-5.6012631c-.9818948 0-1.7406316-.2677184-2.2985263-.8254648-.5578948-.5577465-.8256842-1.3162817-.8256842-2.2979155v-3.74805636c0-.98163381.2677894-1.6955493.8256842-2.25329578.5578947-.55774648 1.3166315-.82546479 2.2985263-.82546479h5.6012631v2.03019718h-4.9987368c-.8033684 0-1.2050526.40157747-1.2050526 1.2047324v3.43571835c0 .780845.4016842 1.1824225 1.2050526 1.1824225h4.9987368z"/><path d="m32.8042105 15.9738592v-6.9606761c0-.9816338.2677895-1.74016902.8256842-2.29791549.5578948-.53543662 1.3166316-.82546479 2.2985264-.82546479h3.1465263c.9818947 0 1.8298947.29002817 2.3654737.82546479.5578947.55774647.9818947 1.27166197.9818947 2.25329577v7.00529582h-2.5216842v-6.80450709c0-.80315493-.4016842-1.18242253-1.2273684-1.18242253h-2.544c-.7810527 0-1.1827369.3792676-1.1827369 1.18242253v6.80450709z"/><path d="m28.586527 6.22445h2.544v9.749409h-2.544z"/></g><path d="m18.8791579 14.5237183c1.9414737 0 3.5258947-1.584 3.5258947-3.5249577 0-1.94095778-1.584421-3.52495778-3.5258947-3.52495778-1.9637895 0-3.5482105 1.584-3.5482105 3.52495778 0 1.9409577 1.584421 3.5249577 3.5482105 3.5249577z" fill="url(#a)"/><path d="m23.3869474 13.8767324v-.0223099c-.2008421.2900282-.424.5577465-.6917895.803155-.2677895.2454084-.535579.468507-.8256842.6692957-.2008421.1115493-.424.2230986-.6248421.3346479l-.0223158-.0223098c-.6025263.312338-1.272.468507-1.9414737.5131267-.3793684.0446197-.7587368.0223099-1.1381053-.0223098-.0223157 0-.0669473 0-.0892631-.0223099-.5578948-.0669296-.6917895-.0446197-1.0488421.3569578l-1.1604211 1.1601126c1.4951579.6469859 3.1465263.7808451 4.7309474.4461972.0223158-.0223098.0446316-.0223098.0669474-.0223098.9372631-.2230986 1.8522105-.6023662 2.6555789-1.1824226l3.4366316 3.168c1.5397895 1.4055211 2.9903158 1.9632676 4.7755789 1.9632676h21.2v-2.0748169h-21.1776842c-.9149473 0-2.12-.4015774-3.0126316-1.2493521zm-6.8286316-7.51842254c.8033684-.40157747 1.696-.55774648 2.5663158-.53543662h.0446316.0223157c.1562106.02230986.3124211.02230986.4686316.04461972.0223158 0 .0446316.02230986.0669474.02230986.5578947.06692957.6917895.06692957 1.0711579-.33464789l1.1381053-1.18242254c-.1785264-.06692957-.3347369-.13385915-.5132632-.20078873-.6025263-.20078873-1.2273684-.33464789-1.8522105-.3792676v-.02230986h-.0446316c-1.272-.08923944-2.5663158.11154929-3.7490526.64698591-.4463158.17847888-.8703158.42388733-1.272.7139155l-3.4589474-3.168c-1.53978948-1.40552113-2.96800001-1.96326761-4.77557896-1.96326761h-6.27073684v2.0748169h6.24842105c.91494737 0 2.12.40157747 3.01263158 1.24935211l5.15494737 4.81892958h.0223158c.1785263-.29002817.4016842-.55774648.6694737-.80315493.2677894-.24540845.5355789-.46850704.848-.66929577.1785263-.1115493.3793684-.22309859.6025263-.31233803zm9.2610526 7.45149294-1.0265263-.8700845c-.5132632-.4461972-.6025263-.624676-.5802105-1.2047324v-.0223098c0-.0446198.0223158-.1115493.0223158-.1784789 0-.0446197 0-.0892395.0223158-.1338592 0-.0446197 0-.0669295 0-.0892394.0892631-1.42783099-.424-2.87797184-1.5621053-3.97115494-.2677895-.24540845-.535579-.46850704-.8256842-.66929577l4.8648421-4.70738028c1.4951579-1.45014085 2.9903158-1.96326761 4.7755789-1.96326761h21.2v2.0748169h-21.1776842c-.9149473 0-2.12.40157747-3.0126316 1.24935211-.424.40157747-3.5035789 3.48033803-3.5035789 3.48033803 1.3166316 1.78478873 1.6736842 3.99346476 1.1604211 6.02366196-.0223158.0223099-.0223158.0446197-.0446316.0669296-.0669474.312338-.1785263.624676-.3124211.9147042zm-13.880421-5.62208449 1.0042105.89239437c.5132632.42388732.6248421.60236619.5802105 1.20473242v.0223098c0 .0892395-.0223158.2007888-.0223158.3123381-.0223158.2900281-.0223158.5577464 0 .8477746.111579 1.1601127.6248421 2.2979155 1.5397895 3.1903099.2677895.2454084.535579.468507.848.6692957l-4.9094737 4.7073803c-1.49515787 1.4501409-2.96799998 1.9632676-4.77557893 1.9632676h-6.20378947v-2.0748169h6.20378947c.89263158 0 2.12-.4015774 2.99031579-1.2493521.424-.4015775 3.52589474-3.480338 3.52589474-3.480338-1.4282105-1.9632676-1.7629474-4.4173521-.9595789-6.62602818l.0223157.02230985c.0446316-.13385915.0892632-.26771831.1562106-.40157746z" fill="url(#b)"/></g></svg>