<svg height="16" viewBox="0 0 16 16" width="16" xmlns="http://www.w3.org/2000/svg"><g fill="#78d801" transform="translate(2 2)"><path d="m4.58002339 2.33172656c-.38325146.14896875-.74007017.35854688-1.05723976.62069531l-1.45784796-1.47724218c.58107603-.50939063 1.25588304-.90021094 1.98645614-1.15033594z" opacity=".03"/><path d="m2.93840936 3.52966406c-.26163743.31778906-.47080702.67530469-.61948538 1.05930469l-2.00299415-.5379375c.25316959-.72972656.64591812-1.40296875 1.15635087-1.9820625z" opacity=".05"/><path d="m2.06493567 6c-.00042105.20772656.01548538.41545312.04748538.62069531l-2.00091228.5379375c-.14867836-.75972656-.14867836-1.54096875 0-2.30069531l2.00091228.52139063c-.032.20542968-.04790643.41294531-.04748538.62067187z" opacity=".1"/><path d="m2.93840936 8.47035937-1.46610527 1.46069532c-.50839766-.58221094-.89845614-1.25833594-1.14809356-1.99033594l2.00299415-.5379375c.14535672.38625.35183626.74688281.61120468 1.06757812z" opacity=".2"/><path d="m4.58002339 9.66827344-.53688889 2.00690626c-.72767251-.2511797-1.39960234-.642-1.97819883-1.150336l1.46610527-1.4689687c.31511111.25839844.66923976.46509375 1.04898245.61239844z" opacity=".3"/><path d="m7.13639766 11.8882734c-.75824561.1489688-1.53796491.1489688-2.29621053 0l.52863158-2.00482028c.40493568.06351563.81749708.06351563 1.22243275 0z" opacity=".4"/><path d="m9.91167251 10.5248438c-.58107602.5093906-1.25588304.9002109-1.98645614 1.1503359l-.53688888-2.00690626c.38325146-.14896875.74007017-.35854688 1.05723976-.62069531z" opacity=".5"/><path d="m11.6524211 7.94896875c-.2506901.72909375-.6407486 1.40233594-1.1480936 1.9820625l-1.46610528-1.46896875c.26163743-.31778906.47080702-.67530469.61948538-1.05930469z" opacity=".6"/><path d="m11.9766082 6c.0008187.38627344-.036538.77151563-.1115088 1.15033594l-2.00091227-.52966406c.06339182-.40572657.06339182-.81909375 0-1.22482032l2.00091227-.5379375c.0743392.37617188.1117193.75871875.1115088 1.14208594z" opacity=".7"/><path d="m11.6524211 4.05103125-2.0029942.5379375c-.14867836-.384-.35784795-.74151563-.61948538-1.05930469l1.46610528-1.46896875c.5112748.58157813.9042339 1.25772657 1.1563743 1.99033594z" opacity=".8"/><path d="m9.91167251 1.47517969-1.46610526 1.46896875c-.31716959-.26214844-.6739883-.47172656-1.05723976-.62069532l.53688888-2.00690624c.73118129.25284375 1.4060117.64635937 1.98645614 1.15863281z" opacity=".9"/><path d="m7.13639766.11172656-.52863158 2.00482032c-.40493567-.06351563-.81749707-.06351563-1.22243275 0l-.53686549-2.00482032c.75824561-.14896875 1.53796491-.14896875 2.29621052 0-.00002339 0-.0082807 0-.0082807 0z"/></g></svg>