<svg height="454" viewBox="0 0 740 454" width="740" xmlns="http://www.w3.org/2000/svg"><g fill="#fff" opacity=".1" transform=""><path d="m173.08621 116.716715c-3.475341 0-4.344174 1.273345-4.344174 4.244471 0-2.971126-1.158448-4.244471-4.34418-4.244471 3.185732 0 4.34418-1.273336 4.34418-4.244471 0 2.971135.868833 4.244471 4.344174 4.244471z"/><path d="m247.516497 35.7921088c-3.475341 0-4.344174 1.2733449-4.344174 4.244471 0-2.9711261-1.158447-4.244471-4.344179-4.244471 3.185732 0 4.344179-1.2733449 4.344179-4.2444721 0 2.9711272 1.013635 4.2444721 4.344174 4.2444721z"/><path d="m705.248056 342.385101c-3.475341 0-4.344184 1.273345-4.344184 4.244471 0-2.971126-1.158447-4.244471-4.344174-4.244471 3.185727 0 4.344174-1.273336 4.344174-4.244471 0 2.971135.868843 4.244471 4.344184 4.244471z"/><path d="m322.236389 17.5427387c-3.475341 0-4.344156 1.2733449-4.344156 4.24448 0-2.9711351-1.158447-4.24448-4.344179-4.24448 3.185732 0 4.344179-1.2733359 4.344179-4.2444688 0 2.9711329.868815 4.2444688 4.344156 4.2444688z"/><path d="m364.08571 372.091715c-3.909767 0-4.344184.565936-4.344184 4.244471 0-3.678535-.579219-4.244471-4.344175-4.244471 3.764956 0 4.344175-.707409 4.344175-4.244471 0 3.678544.434417 4.244471 4.344184 4.244471z"/><path d="m240.421642 284.660967c-3.909758 0-4.344174.565927-4.344174 4.244471 0-3.678544-.579228-4.244471-4.34418-4.244471 3.764952 0 4.34418-.707418 4.34418-4.244475 0 3.537057.434416 4.244475 4.344174 4.244475z"/><path d="m247.516497 97.9043135c-3.909758 0-4.344174.5659271-4.344174 4.2444715 0-3.6785444-.579228-4.2444715-4.344179-4.2444715 3.764951 0 4.344179-.7074178 4.344179-4.2444753 0 3.6785393.579219 4.2444753 4.344174 4.2444753z"/><path d="m268.948185 150.811409c-3.909767 0-4.344183.565936-4.344183 4.244471 0-3.678535-.579219-4.244471-4.344175-4.244471 3.764956 0 4.344175-.707409 4.344175-4.244471 0 3.537062.434416 4.244471 4.344183 4.244471z"/><path d="m300.805642 172.465761c-3.909767 0-4.344183.565936-4.344183 4.244471 0-3.678535-.579219-4.244471-4.344175-4.244471 3.764956 0 4.344175-.707409 4.344175-4.24447 0 3.678543.434416 4.24447 4.344183 4.24447z"/><path d="m95.7599284 5.65640209c-4.6338161 0-5.2130351.56592708-5.2130351 5.09338851 0-4.52746143-.7240397-5.09338851-5.2130212-5.09338851 4.4889815 0 5.2130212-.84889957 5.2130212-5.09337113 0 4.24447156.579219 5.09337113 5.2130351 5.09337113z"/><path d="m542.631128 146.575151c-4.633816 0-5.213044.565909-5.213044 5.09338 0-4.527471-.72404-5.09338-5.213025-5.09338 4.488985 0 5.213025-.848908 5.213025-5.093379 0 4.244471.579228 5.093379 5.213044 5.093379z"/><path d="m458.354447 199.482229c-4.633834 0-5.213026.565936-5.213026 5.093388 0-4.527452-.724031-5.093388-5.213017-5.093388 4.488986 0 5.213017-.848909 5.213017-5.093379 0 4.385952.579192 5.093379 5.213026 5.093379z"/><path d="m463.567336 61.119464c-4.633825 0-5.213054.565936-5.213054 5.0933974 0-4.5274614-.723994-5.0933974-5.21298-5.0933974 4.488986 0 5.21298-.8488906 5.21298-5.0933638 0 4.2444732.579229 5.0933638 5.213054 5.0933638z"/><path d="m264.604075 120.254385c-3.185737 0-3.620153.424445-3.620153 3.537062 0-3.112617-.434417-3.537062-3.620144-3.537062 3.185727 0 3.620144-.565927 3.620144-3.537062 0 2.971135.434416 3.537062 3.620153 3.537062z"/><path d="m417.953078 258.912062c-3.185727 0-3.620153.424445-3.620153 3.537062 0-3.112617-.434417-3.537062-3.620144-3.537062 3.185727 0 3.620144-.565927 3.620144-3.537062 0 2.971135.434426 3.537062 3.620153 3.537062z"/><path d="m623.867232 120.254385c-3.185736 0-3.620153.424445-3.620153 3.537062 0-3.112617-.434417-3.537062-3.620144-3.537062 3.185727 0 3.620144-.565927 3.620144-3.537062.144812 2.971135.434417 3.537062 3.620153 3.537062z"/><path d="m403.037985 9.19418815c-3.185736 0-3.620153.42444531-3.620153 3.53706215 0-3.11261684-.434416-3.53706215-3.620144-3.53706215 3.185728 0 3.620144-.56592709 3.620144-3.53706217 0 2.97113508.434417 3.53706217 3.620153 3.53706217z"/><path d="m243.172387 355.118952c-3.185728 0-3.620144.424445-3.620144 3.537062 0-3.112617-.434417-3.537062-3.620149-3.537062 3.185732 0 3.620149-.565927 3.620149-3.537062.144802 2.971135.434416 3.537062 3.620144 3.537062z"/><path d="m80.8447077 231.314582c-3.1857275 0-3.620144.424445-3.620144 3.537062 0-3.112617-.4344165-3.537062-3.6201462-3.537062 3.1857297 0 3.6201462-.565927 3.6201462-3.537062 0 2.971135.4344165 3.537062 3.620144 3.537062z"/><path d="m6.12569259 213.635786c-2.60650839 0-2.89611333.282973-2.89611333 2.829653 0-2.405199-.43442568-2.829653-2.89612247-2.829653 2.46169679 0 2.89612247-.424445 2.89612247-2.829644 0 2.405199.43441654 2.829644 2.89611333 2.829644z"/><path d="m136.884615 302.058542c-2.606508 0-2.896122.282972-2.896122 2.829653 0-2.405199-.434417-2.829653-2.896118-2.829653 2.461701 0 2.896118-.424445 2.896118-2.829644.144802 2.405199.434416 2.829644 2.896122 2.829644z"/><path d="m160.92272 166.93992c-2.606508 0-2.896113.282972-2.896113 2.829653 0-2.405199-.434426-2.829653-2.896122-2.829653 2.461696 0 2.896122-.424445 2.896122-2.829644 0 2.405199.289605 2.829644 2.896113 2.829644z"/><path d="m350.762878 314.087755c-2.606509 0-2.896114.282972-2.896114 2.829653 0-2.405199-.434425-2.829653-2.896122-2.829653 2.461697 0 2.896122-.424446 2.896122-2.829645 0 2.405199.289605 2.829645 2.896114 2.829645z"/><path d="m362.492344 169.772951c-2.606509 0-2.896123.282973-2.896123 2.829654 0-2.405199-.434416-2.829654-2.896113-2.829654 2.461697 0 2.896113-.424445 2.896113-2.829644.144812 2.405199.434426 2.829644 2.896123 2.829644z"/><path d="m534.522044 196.798472c-2.606508 0-2.896113.282973-2.896113 2.829654 0-2.4052-.434426-2.829654-2.896123-2.829654 2.461697 0 2.896123-.424445 2.896123-2.829644 0 2.405199.434416 2.829644 2.896113 2.829644z"/><path d="m616.771792 311.397724c-2.606508 0-2.896122.282973-2.896122 2.829653 0-2.405199-.434417-2.829653-2.896114-2.829653 2.461697 0 2.896114-.424445 2.896114-2.829644 0 2.263717.289614 2.829644 2.896122 2.829644z"/><path d="m682.223943 169.772951c-2.606509 0-2.896114.282973-2.896114 2.829654 0-2.405199-.434425-2.829654-2.896122-2.829654 2.461697 0 2.896122-.424445 2.896122-2.829644 0 2.405199.289605 2.829644 2.896114 2.829644z"/><path d="m540.314234 41.5894565c-2.606508 0-2.896113.2829635-2.896113 2.8296443 0-2.405199-.434426-2.8296443-2.896122-2.8296443 2.461696 0 2.896122-.4244454 2.896122-2.8296512 0 2.4052058.289605 2.8296512 2.896113 2.8296512z"/><path d="m320.788319 55.3166916c-2.606508 0-2.896122.2829636-2.896122 2.8296533 0-2.405208-.434417-2.8296533-2.896119-2.8296533 2.461702 0 2.896119-.4244453 2.896119-2.8296465 0 2.4052012.289614 2.8296465 2.896122 2.8296465z"/><path d="m142.677628 78.6601562c-2.606509 0-2.896123.2829635-2.896123 2.8296533 0-2.405208-.434416-2.8296533-2.896118-2.8296533 2.461702 0 2.896118-.4244453 2.896118-2.8296465 0 2.4052012.289614 2.8296465 2.896123 2.8296465z"/><path d="m57.241558 41.8706594c-4.054597 0-5.0682326 1.5563084-5.0682326 4.9518441 0-3.5370174-1.3032587-4.9518441-5.0682099-4.9518441 3.7649512 0 5.0682099-1.4148177 5.0682099-4.951882-.1448116 3.5370643 1.0136356 4.951882 5.0682326 4.951882z"/><path d="m76.7902294 97.8985134c-2.4616968 0-3.1857366.8488996-3.1857366 3.1126256 0-2.1222442-.868833-3.1126256-3.1857252-3.1126256 2.3168922 0 3.1857252-.8488906 3.1857252-3.1126079 0 2.2637173.7240398 3.1126079 3.1857366 3.1126079z"/><path d="m60.4270936 288.900246c-2.4617059 0-3.1857274.84889-3.1857274 3.112608 0-2.122236-.8688422-3.112608-3.1857388-3.112608 2.3168966 0 3.1857388-.848891 3.1857388-3.112608.1448024 2.122235.7240215 3.112608 3.1857274 3.112608z"/><path d="m563.627916 85.0292221c-2.461706 0-3.185755.8489085-3.185755 3.1126258 0-2.1222355-.868806-3.1126258-3.1857-3.1126258 2.316894 0 3.1857-.8488906 3.1857-3.1126058 0 2.2637152.724049 3.1126058 3.185755 3.1126058z"/><path d="m610.979538 213.632774c-2.461697 0-3.185745.848891-3.185745 3.112608 0-2.122235-.868852-3.112608-3.185745-3.112608 2.316893 0 3.185745-.84889 3.185745-3.112612.144811 2.263722.724048 3.112612 3.185745 3.112612z"/><path d="m640.519955 234.858168c-2.461706 0-3.185755.848891-3.185755 3.112608 0-2.122236-.868806-3.112608-3.185701-3.112608 2.316895 0 3.185701-.848891 3.185701-3.112613.144811 2.263722.724049 3.112613 3.185755 3.112613z"/><path d="m108.647686 164.112814c-2.461697 0-3.185736.84889-3.185736 3.112608 0-2.122236-.868833-3.112608-3.185726-3.112608 2.316893 0 3.185726-.848891 3.185726-3.112613 0 2.263722.724039 3.112613 3.185736 3.112613z"/><path d="m362.78194 88.1393098c-2.461706 0-3.18571.8488906-3.18571 3.1126079 0-2.1222355-.868851-3.1126079-3.185745-3.1126079 2.316894 0 3.185745-.8488996 3.185745-3.112619.144812 2.1222376.724004 3.112619 3.18571 3.112619z"/><path d="m510.773736 277.300018c-2.461706 0-3.185755.848891-3.185755 3.112608 0-2.122235-.868806-3.112608-3.185701-3.112608 2.316895 0 3.185701-.84889 3.185701-3.112612.144811 2.263722.86886 3.112612 3.185755 3.112612z"/><path d="m379.000748 247.593404c-2.461706 0-3.185755.848891-3.185755 3.112608 0-2.122235-.868806-3.112608-3.1857-3.112608 2.316894 0 3.1857-.84889 3.1857-3.112612 0 2.263722.724049 3.112612 3.185755 3.112612z"/><path d="m359.741572 58.0037192c-2.461697 0-3.185746.8488906-3.185746 3.1126079 0-2.1222355-.868851-3.1126079-3.185745-3.1126079 2.316894 0 3.185745-.8488906 3.185745-3.1126125 0 2.2637219.724049 3.1126125 3.185746 3.1126125z"/><path d="m566.668868 26.027105c-2.461706 0-3.185755.8488907-3.185755 3.112608 0-2.1222356-.868805-3.112608-3.1857-3.112608 2.316895 0 3.1857-.8488995 3.1857-3.1126157.144812 2.1222344.724049 3.1126157 3.185755 3.1126157z"/><path d="m614.165174 38.9053334c-2.461706 0-3.185709.8488906-3.185709 3.1126079 0-2.1222355-.868851-3.1126079-3.185745-3.1126079 2.316894 0 3.185745-.8488996 3.185745-3.1126179 0 2.1222365.724003 3.1126179 3.185709 3.1126179z"/><path d="m654.566041 78.6571355c-2.461706 0-3.185709.8489085-3.185709 3.1126258 0-2.1222356-.868852-3.1126258-3.185746-3.1126258 2.316894 0 3.185746-.8488907 3.185746-3.1126058 0 2.2637151.724003 3.1126058 3.185709 3.1126058z"/><path d="m696.55967 68.6119476c-2.461706 0-3.185754.8488906-3.185754 3.1126079 0-2.1222355-.868806-3.1126079-3.1857-3.1126079 2.316894 0 3.1857-.8488907 3.1857-3.1126126 0 2.1222402.724048 3.1126126 3.185754 3.1126126z"/><path d="m696.55967 22.9170263c-2.461706 0-3.185754.8488906-3.185754 3.1126168 0-2.1222444-.868806-3.1126168-3.1857-3.1126168 2.316894 0 3.1857-.8488996 3.1857-3.1126169 0 2.2637173.724048 3.1126169 3.185754 3.1126169z"/><path d="m177.430284 21.7788805c-2.751311 0-4.344174 1.8392719-4.344174 4.2444799 0-2.405208-1.592864-4.3859617-4.34418-4.2444799 2.751316-.1414818 4.34418-1.9807538 4.34418-4.2444689 0 2.2637151 1.448052 4.2444689 4.344174 4.2444689z"/><path d="m453.141512 108.083566c-2.75132 0-4.344183 1.839271-4.344183 4.244479 0-2.405208-1.592864-4.385961-4.344176-4.244479 2.751312-.141482 4.344176-1.980754 4.344176-4.244469-.144803 2.263715 1.448061 4.244469 4.344183 4.244469z"/><path d="m739.421941 243.34518c-2.751311 0-4.344174 1.839272-4.344174 4.244471 0-2.405199-1.592864-4.385953-4.344176-4.244471 2.751312-.141482 4.344176-1.980754 4.344176-4.244471 0 2.263717 1.592863 4.244471 4.344174 4.244471z"/><path d="m239.697173 227.070888c-2.751311 0-4.344174 1.839272-4.344174 4.244471 0-2.405199-1.592864-4.385952-4.34418-4.244471 2.751316-.141481 4.34418-1.980753 4.34418-4.244471-.144812 2.263718 1.448052 4.244471 4.344174 4.244471z"/><path d="m61.7308274 359.356479c-2.7513109 0-4.3441746 1.839272-4.3441746 4.244471 0-2.405199-1.5928728-4.385953-4.3441815-4.244471 2.7513087-.141482 4.3441815-1.980754 4.3441815-4.244471 0 2.263717 1.4480521 4.244471 4.3441746 4.244471z"/><path d="m32.0458644 142.330189c-2.7513108 0-4.3441745 1.839272-4.3441745 4.244471 0-2.405199-1.5928729-4.385953-4.3441815-4.244471 2.7513086-.141482 4.3441815-1.980763 4.3441815-4.244482 0 2.263719 1.4480521 4.244482 4.3441745 4.244482z"/><path d="m523.806287 367.846636c-2.75132 0-4.344184 1.839272-4.344184 4.244471 0-2.405199-1.592864-4.385952-4.344175-4.244471 2.751311-.141481 4.344175-1.980753 4.344175-4.244471 0 2.263718 1.592864 4.244471 4.344184 4.244471z"/><path d="m6.70492988 40.038823c-2.17209186 0-3.33054815 1.4148177-3.33054815 3.2540897 0-1.839272-1.30324963-3.3955804-3.33053098-3.2540897 2.02728135-.1414907 3.33053098-1.5563084 3.33053098-3.2540986-.14480247 1.6977902 1.15845629 3.2540986 3.33054815 3.2540986z"/><path d="m146.007646 237.966727c-2.172083 0-3.330539 1.414827-3.330539 3.254099 0-1.839272-1.303259-3.39558-3.330539-3.254099 2.02728-.141481 3.330539-1.556308 3.330539-3.254098 0 1.69779 1.158456 3.254098 3.330539 3.254098z"/><path d="m440.108322 338.141658c-2.172083 0-3.330558 1.4148-3.330558 3.254071 0-1.839271-1.30324-3.395553-3.330521-3.254071 2.027281-.141482 3.330521-1.556291 3.330521-3.254082 0 1.839273 1.158475 3.254082 3.330558 3.254082z"/><path d="m414.188186 146.567966c-2.172082 0-3.330511 1.4148-3.330511 3.254072 0-1.839272-1.303241-3.395554-3.330522-3.254072 2.027281-.141482 3.330522-1.556318 3.330522-3.254103 0 1.697785 1.158429 3.254103 3.330511 3.254103z"/><path d="m210.73572 180.09961c-2.172092 0-3.330539 1.414827-3.330539 3.254099 0-1.839272-1.303259-3.39558-3.330543-3.254099 2.027284-.141481 3.330543-1.556308 3.330543-3.254098 0 1.69779 1.158447 3.254098 3.330539 3.254098z"/><path d="m105.317668 58.1407861c-1.882478 0-2.896113 1.2733449-2.896113 2.8296533 0-1.6977902-1.158448-2.9711351-2.8961229-2.8296533 1.8824779-.1414818 2.8961229-1.2733359 2.8961229-2.8296465 0 1.4148288 1.013635 2.8296465 2.896113 2.8296465z"/><path d="m161.067989 367.852794c-1.882478 0-2.896113 1.273345-2.896113 2.829653 0-1.69779-1.158448-2.971135-2.896123-2.829653 1.882478-.141482 2.896123-1.273336 2.896123-2.829644-.144812 1.556308.868833 2.829644 2.896113 2.829644z"/><path d="m12.6413469 416.800795c-1.8824778 0-2.89611332 1.273345-2.89611332 2.829653 0-1.69779-1.15844716-2.971135-2.89612247-2.829653 1.88247778-.141482 2.89612247-1.273336 2.89612247-2.829645-.1448116 1.556309.86883312 2.829645 2.89611332 2.829645z"/><path d="m295.01347 413.976701c-1.882477 0-2.896113 1.273344-2.896113 2.829653 0-1.69779-1.158447-2.971135-2.896122-2.829653 1.882477-.141482 2.896122-1.273336 2.896122-2.829645 0 1.414827 1.013636 2.829645 2.896113 2.829645z"/><path d="m481.667955 434.630135c-1.882478 0-2.896113 1.273345-2.896113 2.829653 0-1.69779-1.158447-2.971135-2.896122-2.829653 1.882477-.141482 2.896122-1.273336 2.896122-2.829645 0 1.556309 1.013635 2.829645 2.896113 2.829645z"/><path d="m623.287995 365.019762c-1.882478 0-2.896123 1.273345-2.896123 2.829654 0-1.69779-1.158447-2.971135-2.896114-2.829654 1.882479-.141481 2.896114-1.273335 2.896114-2.829644 0 1.414827 1.013645 2.829644 2.896123 2.829644z"/><path d="m626.908148 161.139802c-1.882478 0-2.896123 1.273336-2.896123 2.829644 0-1.69779-1.158447-2.971135-2.896113-2.829644 1.882478-.141491 2.896113-1.273345 2.896113-2.829653-.144802 1.414826 1.013645 2.829653 2.896123 2.829653z"/><path d="m306.742023 258.910668c-1.882478 0-2.896123 1.273345-2.896123 2.829653 0-1.69779-1.158447-2.971135-2.896113-2.829653 1.882478-.141482 2.896113-1.273336 2.896113-2.829644-.144802 1.556308.868842 2.829644 2.896123 2.829644z"/><path d="m73.5564568 190.413588c-5.937084 0-9.2676321 3.820034-9.2676321 9.054887 0-5.234853-3.4752958-9.337851-9.2675319-9.054887 5.7922361-.282964 9.2675319-4.103007 9.2675319-9.054892 0 4.951885 3.3305481 9.054892 9.2676321 9.054892z"/><path d="m484.708359 138.082322c-1.882478 0-2.896113 1.273353-2.896113 2.829662 0-1.69779-1.158447-2.971144-2.896123-2.829662 1.882478-.141482 2.896123-1.273336 2.896123-2.829647-.144812 1.556311 1.013635 2.829647 2.896113 2.829647z"/><path d="m578.253413 262.440786c-1.882478 0-2.896123 1.273345-2.896123 2.829653 0-1.69779-1.158447-2.971135-2.896113-2.829653 1.882478-.141482 2.896113-1.273336 2.896113-2.829644 0 1.556308 1.013645 2.829644 2.896123 2.829644z"/><path d="m299.357544 338.137243c-1.882477 0-2.896113 1.273345-2.896113 2.829653 0-1.69779-1.158447-2.971135-2.896122-2.829653 1.882477-.141482 2.896122-1.273336 2.896122-2.829645 0 1.556309 1.013636 2.829645 2.896113 2.829645z"/><path d="m145.573677 382.143079c-1.882478 0-2.896122 1.273344-2.896122 2.829653 0-1.69779-1.158448-2.971135-2.896118-2.829653 1.882473-.141482 2.896118-1.273336 2.896118-2.829645 0 1.556309 1.013644 2.829645 2.896122 2.829645z"/><path d="m591.430721 413.976701c-1.882478 0-2.896123 1.273344-2.896123 2.829653 0-1.69779-1.158447-2.971135-2.896114-2.829653 1.882479-.141482 2.896114-1.273336 2.896114-2.829645-.144802 1.414827.868842 2.829645 2.896123 2.829645z"/><path d="m703.800415 428.830008c-1.882478 0-2.896113 1.273345-2.896113 2.829653 0-1.69779-1.158447-2.971135-2.896122-2.829653 1.882477-.141482 2.896122-1.273336 2.896122-2.829645 0 1.556309 1.013635 2.829645 2.896113 2.829645z"/><path d="m200.599529 450.332431c-1.882478 0-2.896123 1.273336-2.896123 2.829644 0-1.69779-1.158447-2.971135-2.896118-2.829644 1.882474-.141491 2.896118-1.273345 2.896118-2.829653 0 1.556308 1.013645 2.829653 2.896123 2.829653z"/><path d="m725.955631 116.713936c-1.882477 0-2.896113 1.273345-2.896113 2.829653 0-1.69779-1.158447-2.971135-2.896121-2.829653 1.882476-.141482 2.896121-1.273336 2.896121-2.829645 0 1.556309 1.013636 2.829645 2.896113 2.829645z"/></g></svg>