<svg height="16" viewBox="0 0 16 16" width="16" xmlns="http://www.w3.org/2000/svg"><path d="m4 6.66666667c-.73333333 0-1.33333333.6-1.33333333 1.33333333s.6 1.33333333 1.33333333 1.33333333 1.33333333-.6 1.33333333-1.33333333-.6-1.33333333-1.33333333-1.33333333zm8 0c-.7333333 0-1.3333333.6-1.3333333 1.33333333s.6 1.33333333 1.3333333 1.33333333 1.3333333-.6 1.3333333-1.33333333-.6-1.33333333-1.3333333-1.33333333zm-4 0c-.73333333 0-1.33333333.6-1.33333333 1.33333333s.6 1.33333333 1.33333333 1.33333333 1.33333333-.6 1.33333333-1.33333333-.6-1.33333333-1.33333333-1.33333333z" fill="#fff" fill-rule="evenodd"/></svg>