<svg height="13" viewBox="0 0 13 13" width="13" xmlns="http://www.w3.org/2000/svg"><path d="m8.125.54166667h-3.25v1.08333333h3.25zm-2.16666667 7.04166666h1.08333334v-3.25h-1.08333334zm4.34958337-3.58041666.7691666-.76916667c-.2329166-.27625-.4875-.53625-.76375-.76375l-.76916663.76916667c-.83958334-.67166667-1.89583334-1.0725-3.04416667-1.0725-2.69208333 0-4.875 2.18291666-4.875 4.875 0 2.69208333 2.1775 4.87500003 4.875 4.87500003s4.875-2.1829167 4.875-4.87500003c0-1.14833334-.4008333-2.20458334-1.0670833-3.03875zm-3.8079167 6.83041663c-2.09625 0-3.79166667-1.69541663-3.79166667-3.79166663s1.69541667-3.79166667 3.79166667-3.79166667 3.7916667 1.69541667 3.7916667 3.79166667-1.6954167 3.79166663-3.7916667 3.79166663z" fill="#fff" fill-rule="evenodd"/></svg>