<svg height="170" viewBox="0 0 170 170" width="170" xmlns="http://www.w3.org/2000/svg"><g fill="none" fill-rule="evenodd" transform=""><path d="m0 0h170v170h-170z" fill="#ecf0f1"/><path d="m0 0h170v35.1724138h-170z" fill="#546a79"/><path d="m26.3793103 17.5862069c0 4.8567241-3.9363793 8.7931034-8.7931034 8.7931034s-8.79310345-3.9363793-8.79310345-8.7931034 3.93637935-8.79310345 8.79310345-8.79310345 8.7931034 3.93637935 8.7931034 8.79310345" fill="#ed7161"/><path d="m52.7586207 17.5862069c0 4.8567241-3.9363793 8.7931034-8.7931035 8.7931034-4.8567241 0-8.7931034-3.9363793-8.7931034-8.7931034s3.9363793-8.79310345 8.7931034-8.79310345c4.8567242 0 8.7931035 3.93637935 8.7931035 8.79310345" fill="#f0c419"/><path d="m79.137931 17.5862069c0 4.8567241-3.9363793 8.7931034-8.7931034 8.7931034-4.8567242 0-8.7931035-3.9363793-8.7931035-8.7931034s3.9363793-8.79310345 8.7931035-8.79310345c4.8567241 0 8.7931034 3.93637935 8.7931034 8.79310345" fill="#4fba6f"/><g fill="#95a5a5"><path d="m17.5862069 70.3448276h43.9655172c1.6179311 0 2.9310345-1.3101724 2.9310345-2.9310345s-1.3131034-2.9310345-2.9310345-2.9310345h-43.9655172c-1.617931 0-2.9310345 1.3101724-2.9310345 2.9310345s1.3131035 2.9310345 2.9310345 2.9310345"/><path d="m26.3793103 58.6206897h26.3793104c1.617931 0 2.9310345-1.3101725 2.9310345-2.9310345 0-1.6208621-1.3131035-2.9310345-2.9310345-2.9310345h-26.3793104c-1.617931 0-2.9310344 1.3101724-2.9310344 2.9310345 0 1.620862 1.3131034 2.9310345 2.9310344 2.9310345"/><path d="m61.5517241 76.2068966h-43.9655172c-1.617931 0-2.9310345 1.3101724-2.9310345 2.9310344 0 1.6208621 1.3131035 2.9310345 2.9310345 2.9310345h43.9655172c1.6179311 0 2.9310345-1.3101724 2.9310345-2.9310345 0-1.620862-1.3131034-2.9310344-2.9310345-2.9310344"/></g><path d="m158.275862 126.034483-26.024655-26.021724c-1.591552 1.58862-3.789828 2.573448-6.216724 2.573448-2.426897 0-4.628104-.984828-6.216724-2.573448l-23.0936211 23.090689-14.3005172-14.297586c-1.5915517 1.588621-3.7898276 2.573448-6.2167241 2.573448-2.4268966 0-4.6281035-.984827-6.2167242-2.573448l-26.0246552 26.021724-17.2315517-17.22862c-1.5915517 1.58862-3.7898276 2.573448-6.2167241 2.573448-2.4268966 0-4.6251724-.984828-6.2167242-2.573448l-14.3005172 14.297586v38.103448h170v-55.689655z" fill="#4fba6f"/><path d="m29.3103448 111.37931c0 4.856724-3.9363793 8.793104-8.7931034 8.793104-4.8567242 0-8.7931035-3.93638-8.7931035-8.793104s3.9363793-8.793103 8.7931035-8.793103c4.8567241 0 8.7931034 3.936379 8.7931034 8.793103" fill="#eded1b"/><path d="m20.5172414 123.103448c-6.4658621 0-11.72413795-5.258276-11.72413795-11.724138s5.25827585-11.7241376 11.72413795-11.7241376c6.465862 0 11.7241379 5.2582756 11.7241379 11.7241376s-5.2582759 11.724138-11.7241379 11.724138zm0-17.586207c-3.2329311 0-5.862069 2.629138-5.862069 5.862069s2.6291379 5.862069 5.862069 5.862069c3.232931 0 5.8620689-2.629138 5.8620689-5.862069s-2.6291379-5.862069-5.8620689-5.862069z" fill="#f0c419"/><path d="m85 102.586207c0 4.856724-3.9363793 8.793103-8.7931034 8.793103-4.8567242 0-8.7931035-3.936379-8.7931035-8.793103 0-4.8567242 3.9363793-8.7931036 8.7931035-8.7931036 4.8567241 0 8.7931034 3.9363794 8.7931034 8.7931036" fill="#eded1b"/><path d="m76.2068966 114.310345c-6.4658621 0-11.724138-5.258276-11.724138-11.724138 0-6.4658622 5.2582759-11.724138 11.724138-11.724138 6.465862 0 11.7241379 5.2582758 11.7241379 11.724138 0 6.465862-5.2582759 11.724138-11.7241379 11.724138zm0-17.5862071c-3.2329311 0-5.862069 2.629138-5.862069 5.8620691 0 3.232931 2.6291379 5.862069 5.862069 5.862069 3.232931 0 5.8620689-2.629138 5.8620689-5.862069 0-3.2329311-2.6291379-5.8620691-5.8620689-5.8620691z" fill="#f0c419"/><path d="m134.827586 93.7931034c0 4.8567242-3.936379 8.7931036-8.793103 8.7931036s-8.793104-3.9363794-8.793104-8.7931036c0-4.8567241 3.93638-8.7931034 8.793104-8.7931034s8.793103 3.9363793 8.793103 8.7931034" fill="#eded1b"/><path d="m126.034483 105.517241c-6.465862 0-11.724138-5.258275-11.724138-11.7241376 0-6.465862 5.258276-11.7241379 11.724138-11.7241379s11.724138 5.2582759 11.724138 11.7241379c0 6.4658626-5.258276 11.7241376-11.724138 11.7241376zm0-17.5862065c-3.232931 0-5.862069 2.6291379-5.862069 5.8620689 0 3.2329311 2.629138 5.862069 5.862069 5.862069s5.862069-2.6291379 5.862069-5.862069c0-3.232931-2.629138-5.8620689-5.862069-5.8620689z" fill="#f0c419"/></g></svg>