<svg height="156" viewBox="0 0 120 156" width="120" xmlns="http://www.w3.org/2000/svg"><g fill="none" fill-rule="evenodd"><path d="m-20-2h160v160h-160z" fill="#fff" opacity="0"/><g transform="translate(-12 .666667)"><path d="m92 128v-24c0-1.472 1.1946667-2.666667 2.6666667-2.666667s2.6666666 1.194667 2.6666666 2.666667v5.333333h34.3493337c-2.837334-11.4639997-16.834667-21.6399997-26.472-28.3519997-4.029334-2.8053333-5.6693337-7.264-7.8773337-11.648-4.1626666-8.264-8.5253333-19.944-10.0506666-29.104l-1.416-8.1786666c-.1493334.024-.296.0613333-.4453334.0613333-.8773333 0-1.736-.4293333-2.2453333-1.2213333-2.8186667-4.3786667-6.9546667-6.8906667-11.3466667-6.8906667-4.2746666 0-8.336 2.3893333-11.1386666 6.5546667-.6053334.896-1.6613334 1.3013333-2.664 1.128l-1.4773334 8.5466666c-1.528 9.16-5.72 20.84-9.8826666 29.104-2.208 4.384-4.0186667 8.8426667-8.048 11.648-9.6373334 6.712-23.4773334 16.888-26.304 28.3519997h34.352v-5.333333c0-1.472 1.1946666-2.666667 2.6666666-2.666667s2.6666667 1.194667 2.6666667 2.666667v24c0 1.274667-.9146667 2.290667-2.1093333 2.554667.1546666.069333.3226666.112.5013333.112h5.3573333c.5093334 0 .9653334.314666 1.1493334.789333l2.4586666 6.421333c.1813334.474667.6373334.789334 1.1466667.789334h22.8213333c.5093334 0 .9653334-.314667 1.1466667-.789334l2.4586667-6.421333c.184-.474667.64-.789333 1.1493333-.789333h5.3573333c.1973334 0 .376-.056.5413334-.138667-1.1306667-.309333-1.9786667-1.298667-1.9786667-2.528" fill="#38454f"/><path d="m97.3333333 122.688c.024-.002667.0453334-.018667.0693334-.021333l33.3146663-2.677334c.725334-.058666 1.282667-.661333 1.282667-1.389333v-3.933333h-34.6666667z" fill="#38454f"/><path d="m12 114.666667v3.933333c0 .728.5573333 1.333333 1.2826667 1.389333l33.1466666 2.674667c.0853334.010667.1546667.056.2373334.072v-8.069333z" fill="#38454f"/><path d="m52 128v-24c0-1.472-1.1946667-2.666667-2.6666667-2.666667s-2.6666666 1.194667-2.6666666 2.666667v5.333333h-34.352c-.112.453334-.2373334.904-.3146667 1.36v3.973334h34.6666667v8.069333c1.4266666.269333 2.496 1.485333 2.496 2.962667v3.738666c0 .498667.3013333.925334.728 1.117334 1.1946666-.264 2.1093333-1.28 2.1093333-2.554667" fill="#546a79"/><path d="m131.682667 109.333333h-34.3493337v-5.333333c0-1.472-1.1946666-2.666667-2.6666666-2.666667s-2.6666667 1.194667-2.6666667 2.666667v24c0 1.229333.848 2.218667 1.9786667 2.528.4026666-.202667.688-.608.688-1.090667v-3.736c0-1.538666 1.1493333-2.818666 2.6666666-3.013333v-8.021333h34.6666667v-3.973334c-.077333-.456-.205333-.906666-.317333-1.36" fill="#546a79"/><path d="m59.8293333 144c-1.472 0-2.6666666 1.194667-2.6666666 2.666667v2.666666c0 1.472 1.1946666 2.666667 2.6666666 2.666667s2.6666667-1.194667 2.6666667-2.666667v-2.666666c0-1.472-1.1946667-2.666667-2.6666667-2.666667" fill="#e57e25"/><path d="m67.8293333 144c-1.472 0-2.6666666 1.194667-2.6666666 2.666667v5.333333c0 1.472 1.1946666 2.666667 2.6666666 2.666667s2.6666667-1.194667 2.6666667-2.666667v-5.333333c0-1.472-1.1946667-2.666667-2.6666667-2.666667" fill="#e57e25"/><path d="m75.8293333 144c-1.472 0-2.6666666 1.194667-2.6666666 2.666667v5.333333c0 1.472 1.1946666 2.666667 2.6666666 2.666667s2.6666667-1.194667 2.6666667-2.666667v-5.333333c0-1.472-1.1946667-2.666667-2.6666667-2.666667" fill="#e57e25"/><path d="m83.8293333 144c-1.472 0-2.6666666 1.194667-2.6666666 2.666667v2.666666c0 1.472 1.1946666 2.666667 2.6666666 2.666667s2.6666667-1.194667 2.6666667-2.666667v-2.666666c0-1.472-1.1946667-2.666667-2.6666667-2.666667" fill="#e57e25"/><path d="m71.8293333 18.6666667c4.6986667 0 9.128 1.9306666 12.6613334 5.416l-1.248-7.2106667c-1.152-6.90666667-4.0666667-10.032-8.4293334-15.44266667-1.488-1.84-4.3093333-1.84-5.7946666 0-4.3653334 5.41066667-7.28 8.536-8.432 15.44266667l-1.2106667 7.0026667c3.5013333-3.3466667 7.8586667-5.208 12.4533333-5.208" fill="#38454f"/><path d="m71.8293333 24c4.392 0 8.528 2.512 11.3466667 6.8906667.5093333.792 1.368 1.2213333 2.2453333 1.2213333.1493334 0 .296-.0373333.4453334-.0613333l-1.376-7.968c-3.5333334-3.4853334-7.9626667-5.416-12.6613334-5.416-4.5946666 0-8.952 1.8613333-12.4533333 5.208l-1.3493333 7.808c1.0026666.1733333 2.0586666-.232 2.664-1.128 2.8026666-4.1653334 6.864-6.5546667 11.1386666-6.5546667" fill="#8697cb"/><g fill="#546a79"><path d="m84 106.666667h-24c-1.472 0-2.6666667 1.194666-2.6666667 2.666666s1.1946667 2.666667 2.6666667 2.666667h24c1.472 0 2.6666667-1.194667 2.6666667-2.666667s-1.1946667-2.666666-2.6666667-2.666666"/><path d="m84 93.3333333h-24c-1.472 0-2.6666667 1.1946667-2.6666667 2.6666667s1.1946667 2.6666667 2.6666667 2.6666667h24c1.472 0 2.6666667-1.1946667 2.6666667-2.6666667s-1.1946667-2.6666667-2.6666667-2.6666667"/><path d="m60 85.3333333h24c1.472 0 2.6666667-1.1946666 2.6666667-2.6666666s-1.1946667-2.6666667-2.6666667-2.6666667h-24c-1.472 0-2.6666667 1.1946667-2.6666667 2.6666667s1.1946667 2.6666666 2.6666667 2.6666666"/><path d="m81.3333333 117.333333h-18.6666666c-1.472 0-2.6666667 1.194667-2.6666667 2.666667v5.333333c0 1.472 1.1946667 2.666667 2.6666667 2.666667s2.6666666-1.194667 2.6666666-2.666667v-2.666666h13.3333334v2.666666c0 1.472 1.1946666 2.666667 2.6666666 2.666667s2.6666667-1.194667 2.6666667-2.666667v-5.333333c0-1.472-1.1946667-2.666667-2.6666667-2.666667"/><path d="m105.210667 80.9813333c-4.029334-2.8053333-5.6693337-7.264-7.8773337-11.648-4.16-8.2586666-8.5173333-19.9253333-10.048-29.0826666-1.8586666 17.8026666-1.92 58.2426666 35.8586667 58.416.970667.0053333 1.869333-.0266667 2.736-.0746667-5.714667-6.9973333-14.178667-13.0906667-20.669333-17.6106667"/><path d="m56.648 39.6533333-.0986667.576c-1.528 9.16-5.72 20.84-9.8826666 29.104-2.208 4.384-4.0186667 8.8426667-8.048 11.648-6.488 4.52-14.88 10.6133334-20.544 17.608.88.048 1.792.0826667 2.7813333.0773334 38.2186667-.176 37.7093333-41.5493334 35.792-59.0133334"/></g></g></g></svg>