<svg height="170" viewBox="0 0 170 170" width="170" xmlns="http://www.w3.org/2000/svg" xmlns:xlink="http://www.w3.org/1999/xlink"><radialGradient id="a" cx="49.246854%" cy="48.768464%" gradientTransform="matrix(.996581 0 0 1 .001684 0)" r="70.807759%"><stop offset="0" stop-color="#f9c635"/><stop offset=".52" stop-color="#f9c635"/><stop offset=".71" stop-color="#f7b832"/><stop offset="1" stop-color="#f7b832"/></radialGradient><radialGradient id="b" cx="38.046913%" cy="49.605309%" gradientTransform="matrix(.417332 0 0 1 .221687 0)" r="156.793696%"><stop offset="0" stop-color="#265581"/><stop offset=".24" stop-color="#265581"/><stop offset=".61" stop-color="#0086b8"/><stop offset="1" stop-color="#0086b8"/></radialGradient><g fill="none" fill-rule="evenodd" transform=""><path d="m0 0h170v170h-170z" fill="#8697cb"/><path d="m0 0h170v35.1724138h-170z" fill="#546a79"/><path d="m26.3793103 17.5862069c0 4.8567241-3.9363793 8.7931034-8.7931034 8.7931034s-8.79310345-3.9363793-8.79310345-8.7931034 3.93637935-8.79310345 8.79310345-8.79310345 8.7931034 3.93637935 8.7931034 8.79310345" fill="#ed7161"/><path d="m52.7586207 17.5862069c0 4.8567241-3.9363793 8.7931034-8.7931035 8.7931034-4.8567241 0-8.7931034-3.9363793-8.7931034-8.7931034s3.9363793-8.79310345 8.7931034-8.79310345c4.8567242 0 8.7931035 3.93637935 8.7931035 8.79310345" fill="#f0c419"/><path d="m79.137931 17.5862069c0 4.8567241-3.9363793 8.7931034-8.7931034 8.7931034-4.8567242 0-8.7931035-3.9363793-8.7931035-8.7931034s3.9363793-8.79310345 8.7931035-8.79310345c4.8567241 0 8.7931034 3.93637935 8.7931034 8.79310345" fill="#4fba6f"/><path d="m23.4482759 55.6896552h123.1034481v87.9310348h-123.1034481z" fill="#fff"/><g transform="translate(32 92)"><g fill="#265581" fill-rule="nonzero"><path d="m18.9684211 27.4411268c0 3.0341408-2.0976843 4.5065915-6.3376843 4.5065915h-12.6307368v-20.3912113h12.4075789c4.24 0 6.3376843 1.4724507 6.3376843 4.4619719v1.8294084c0 .9816338-.3570527 1.7847888-1.0711579 2.4094648-.7587369.5800564-1.7406316.8923944-3.0349474.9370141 2.9010526.1338592 4.3292632 1.3832113 4.3292632 3.8372958zm-4.3738948-1.9632676c0-.803155-.1785263-1.3832113-.5802105-1.7401691-.4016842-.3569577-1.0711579-.5354366-2.0084211-.5354366h-7.05178944v4.5512113h7.05178944c.9372632 0 1.6067369-.1784789 2.0084211-.4908169.4016842-.3569578.5802105-.9370141.5802105-1.7847887zm-2.7671579-6.0682817c.9372632 0 1.6067369-.1784789 1.9637895-.4461972.3570526-.312338.5802105-.8477747.5802105-1.6063099s-.2231579-1.2939718-.5802105-1.5616901c-.3570526-.312338-1.0265263-.4461972-1.9637895-.4461972h-6.87326314v4.0603944z"/><path d="m105.419789 31.9477183h-11.2025258c-1.9637895 0-3.4812632-.5354366-4.5970527-1.6509296-1.1157894-1.1154929-1.6513684-2.6325633-1.6513684-4.595831v-7.4961126c0-1.9632676.535579-3.3910986 1.6513684-4.5065916 1.1157895-1.1154929 2.6332632-1.6509296 4.5970527-1.6509296h11.2025258v4.0603944h-9.9974732c-1.6067369 0-2.4101053.8031549-2.4101053 2.4094648v6.8714366c0 1.5616902.8033684 2.3648451 2.4101053 2.3648451h9.9974732z"/><path d="m65.6084211 31.9477183v-13.9213521c0-1.9632676.5355789-3.480338 1.6513684-4.595831 1.1157894-1.0708732 2.6332631-1.6509296 4.5970526-1.6509296h6.2930526c1.9637895 0 3.6597895.5800564 4.7309474 1.6509296 1.1157895 1.115493 1.9637895 2.543324 1.9637895 4.5065916v14.0105915h-5.0433684v-13.6090141c0-1.6063098-.8033685-2.364845-2.4547369-2.364845h-5.088c-1.5621052 0-2.3654737.7585352-2.3654737 2.364845v13.6090141z"/><path d="m57.173054 12.448901h5.088v19.498818h-5.088z"/></g><path d="m37.7583158 29.0474366c3.8829474 0 7.0517895-3.168 7.0517895-7.0499155s-3.1688421-7.0499155-7.0517895-7.0499155c-3.927579 0-7.0964211 3.168-7.0964211 7.0499155s3.1688421 7.0499155 7.0964211 7.0499155z" fill="url(#a)"/><path d="m46.7738947 27.7534648v-.0446197c-.4016842.5800563-.848 1.1154929-1.3835789 1.6063098-.535579.4908169-1.0711579.9370141-1.6513684 1.3385916-.4016842.2230986-.848.4461972-1.2496842.6692958l-.0446316-.0446198c-1.2050527.6246761-2.544.9370141-3.8829474 1.0262536-.7587368.0892394-1.5174737.0446197-2.2762105-.0446198-.0446316 0-.1338948 0-.1785263-.0446197-1.1157895-.1338591-1.383579-.0892394-2.0976842.7139155l-2.3208421 2.3202254c2.9903157 1.2939718 6.2930526 1.5616901 9.4618947.8923943.0446316-.0446197.0892631-.0446197.1338947-.0446197 1.8745263-.4461972 3.7044211-1.2047324 5.3111579-2.3648451l6.8732632 6.336c3.0795789 2.8110423 5.9806316 3.9265353 9.5511579 3.9265353h42.3999995v-4.1496338h-42.3553679c-1.8298948 0-4.24-.803155-6.0252632-2.4987043zm-13.6572631-15.0368451c1.6067368-.8031549 3.392-1.1154929 5.1326316-1.0708732h.0892631.0446316c.312421.0446197.6248421.0446197.9372632.0892394.0446315 0 .0892631.0446197.1338947.0446197 1.1157895.1338592 1.3835789.1338592 2.1423158-.6692957l2.2762105-2.36484511c-.3570526-.13385916-.6694737-.26771831-1.0265263-.40157747-1.2050526-.40157746-2.4547369-.66929577-3.7044211-.75853521v-.04461972h-.0892631c-2.544-.17847887-5.1326316.2230986-7.4981053 1.29397184-.8926316.35695774-1.7406316.84777464-2.544 1.42783097l-6.9178947-6.33599999c-3.079579-2.81104225-5.936-3.92653521-9.5511579-3.92653521h-12.5414737v4.1496338h12.4968421c1.8298947 0 4.24.80315493 6.0252632 2.49870423l10.3098947 9.63785917h.0446316c.3570526-.5800564.8033684-1.115493 1.3389473-1.6063099.535579-.4908169 1.0711579-.9370141 1.696-1.3385915.3570527-.2230986.7587369-.4461972 1.2050527-.6246761zm18.5221052 14.9029859-2.0530526-1.740169c-1.0265263-.8923943-1.2050526-1.2493521-1.160421-2.4094648v-.0446197c0-.0892394.0446315-.2230986.0446315-.3569577 0-.0892395 0-.1784789.0446316-.2677183 0-.0892395 0-.1338592 0-.1784789.1785263-2.855662-.848-5.7559437-3.1242105-7.9423099-.535579-.4908169-1.0711579-.9370141-1.6513684-1.3385915l9.7296842-9.41476059c2.9903158-2.90028169 5.9806316-3.92653521 9.5511579-3.92653521h42.3999995v4.1496338h-42.3553679c-1.8298948 0-4.24.80315493-6.0252632 2.49870423-.848.80315493-7.0071579 6.96067607-7.0071579 6.96067607 2.6332632 3.5695774 3.3473684 7.9869296 2.3208421 12.0473239-.0446316.0446197-.0446316.0892395-.0892632.1338592-.1338947.624676-.3570526 1.2493521-.6248421 1.8294084zm-27.7608421-11.244169 2.0084211 1.7847888c1.0265263.8477746 1.2496842 1.2047323 1.160421 2.4094647v.0446198c0 .1784788-.0446315.4015774-.0446315.624676-.0446316.5800564-.0446316 1.115493 0 1.6955493.2231579 2.3202254 1.2496842 4.595831 3.0795789 6.3806197.535579.4908169 1.0711579.9370141 1.696 1.3385916l-9.8189474 9.4147605c-2.9903157 2.9002817-5.936 3.9265353-9.5511579 3.9265353h-12.4075789v-4.1496338h12.4075789c1.7852632 0 4.24-.803155 5.9806316-2.4987043.848-.8031549 7.0517895-6.960676 7.0517895-6.960676-2.8564211-3.9265352-3.5258947-8.8347043-1.9191579-13.2520564l.0446316.0446197c.0892631-.2677183.1785263-.5354366.312421-.8031549z" fill="url(#b)"/></g><path d="m23.4482759 55.6896552h123.1034481v29.3103448h-123.1034481z" fill="#556080"/><g fill="#fff"><path d="m35.1724138 67.4137931h23.4482759v5.862069h-23.4482759z"/><path d="m123.103448 79.137931c-.750345 0-1.500689-.2872413-2.072241-.8587931-1.146035-1.1460345-1.146035-2.9984482 0-4.1444827l11.724138-11.724138c1.146034-1.1460344 2.998448-1.1460344 4.144483 0 1.146034 1.1460345 1.146034 3.0013794 0 4.1444828l-11.724138 11.7241379c-.571552.5715518-1.321897.8587931-2.072242.8587931"/><path d="m134.827586 79.137931c-.750345 0-1.500689-.2872413-2.072241-.8587931l-11.724138-11.7241379c-1.146035-1.1431034-1.146035-2.9984483 0-4.1444828 1.146034-1.1460344 2.998448-1.1460344 4.144483 0l11.724138 11.724138c1.146034 1.1460345 1.146034 2.9984482 0 4.1444827-.571552.5715518-1.321897.8587931-2.072242.8587931"/></g></g></svg>