<svg height="202" viewBox="0 0 248 202" width="248" xmlns="http://www.w3.org/2000/svg"><g fill="none" fill-rule="evenodd"><g fill="#fff"><g opacity=".25" transform=""><path d="m229.610226 155.760633h-.944022c-1.011597-.444968-1.761679-1.368613-1.963728-2.483729v-.477329c0-.172594-.010812-.34249-.03176-.508342.004055-.03371.006758-.068094.011488-.102478-.008785-.004045-.018245-.00809-.02703-.011461-.234485-1.538509-1.31636-2.701493-2.617853-2.701493h-.665613c-1.471782 0-2.665831 1.488619-2.665831 3.323774v1.030168c-.354769.894654-1.081875 1.601883-1.992109 1.93089h-.914965c-1.840065 0-3.33212 1.190626-3.33212 2.658345v.665429c0 1.299845 1.171074 2.3826 2.717864 2.6125.003379.006068.006082.013484.009461.020226.027705-.003371.055411-.004719.083117-.007416.170289.021574.343956.033035.521678.033035h.318954c1.183237.195516 2.158343 1.002526 2.58812 2.085955v.755771c0 1.835829 1.194049 3.324448 2.665831 3.324448h.665613c1.471782 0 2.665155-1.488619 2.665155-3.324448v-.118658c.252731-1.394906 1.36569-2.491145 2.770573-2.723068h.137177c1.840741 0 3.33212-1.190626 3.33212-2.658345v-.665429c0-1.467719-1.491379-2.658345-3.33212-2.658345"/><path d="m15.1436774 120.111368h-.9440218c-1.0115967-.444968-1.7616785-1.368613-1.9637275-2.483729v-.477329c0-.172594-.010812-.34249-.0317603-.508342.0040545-.03371.0067575-.068093.0114878-.102477-.0087848-.004046-.0182452-.008091-.02703-.011462-.234485-1.538509-1.3163597-2.701493-2.61785285-2.701493h-.66561308c-1.47178201 0-2.66583106 1.488619-2.66583106 3.323774v1.030168c-.35476839.894655-1.08187466 1.601884-1.99210899 1.93089h-.91496458c-1.84006539 0-3.33211989 1.190626-3.33211989 2.658345v.665429c0 1.299845 1.17107357 2.3826 2.71786376 2.6125.00337875.006068.00608174.013484.00946049.020226.02770572-.003371.05541144-.004719.08311717-.007416.17028883.021574.3439564.033035.52167847.033035h.31895368c1.18323706.195517 2.15834332 1.002526 2.58811989 2.085955v.755771c0 1.835829 1.19404905 3.324449 2.66583106 3.324449h.66561308c1.47178205 0 2.66515535-1.48862 2.66515535-3.324449v-.118658c.2527302-1.394906 1.3656893-2.491145 2.7705722-2.723068h.1371771c1.8407411 0 3.3321199-1.190625 3.3321199-2.658345v-.665429c0-1.467719-1.4913788-2.658345-3.3321199-2.658345"/><path d="m221.706459 41.9977529c0 .8899355-.723052 1.6119968-1.615717 1.6119968-.891989 0-1.615041-.7220613-1.615041-1.6119968 0-.8892613.723052-1.6113226 1.615041-1.6113226.892665 0 1.615717.7220613 1.615717 1.6113226"/><path d="m132.592693 2.45866097c0 .88993548-.723052 1.61199677-1.615716 1.61199677-.89199 0-1.615041-.72206129-1.615041-1.61199677 0-.88926129.723051-1.61132258 1.615041-1.61132258.892664 0 1.615716.72206129 1.615716 1.61132258"/><path d="m29.1014147 81.337351c0 .8899355-.7230518 1.6119967-1.6157166 1.6119967-.8919891 0-1.6150409-.7220612-1.6150409-1.6119967 0-.8892613.7230518-1.6113226 1.6150409-1.6113226.8926648 0 1.6157166.7220613 1.6157166 1.6113226"/><path d="m42.1656763 167.045487c0 .889935-.7230518 1.611997-1.6157166 1.611997-.8919891 0-1.6150409-.722062-1.6150409-1.611997 0-.889262.7230518-1.611323 1.6150409-1.611323.8926648 0 1.6157166.722061 1.6157166 1.611323"/><path d="m34.2434616 9.50802871c0 .88993549-.7230518 1.61199679-1.6157166 1.61199679-.8919891 0-1.6150409-.7220613-1.6150409-1.61199679 0-.88926129.7230518-1.61132258 1.6150409-1.61132258.8926648 0 1.6157166.72206129 1.6157166 1.61132258"/><path d="m245.90146 110.889884h-.475727c-.508839-.224507-.886583-.6897-.988621-1.251304v-.240013c0-.087645-.005406-.173267-.015543-.256867.001352-.016855.003379-.034384.004731-.051239-.003379-.002697-.008109-.004045-.01284-.006068-.118256-.774648-.663585-1.360522-1.318386-1.360522h-.335172c-.741297 0-1.342714.749703-1.342714 1.674696v.518455c-.177722.450362-.544654.806336-1.003488.972862h-.460185c-.927128 0-1.677886.598683-1.677886 1.338274v.3344c0 .655316.589254 1.200738 1.368393 1.3167.002027.002022.002703.005393.00473.009438.014191-.002022.027706-.002022.042572-.004045.085145.012136.172316.017529.262191.017529h.160828c.595335.097758 1.086605.504971 1.302845 1.04972v.380919c0 .924319.601417 1.674023 1.342714 1.674023h.335172c.741297 0 1.342038-.749704 1.342038-1.674023v-.060003c.127041-.701836.687913-1.254 1.395422-1.370636h.068926c.926453 0 1.677886-.600032 1.677886-1.339622v-.3344c0-.739591-.751433-1.338274-1.677886-1.338274"/><path d="m62.4886343 19.4168535h-.4757275c-.5088392-.2245064-.8865831-.6897-.9886212-1.2513032v-.2400129c0-.0876451-.005406-.1732677-.0155423-.2568677.0013515-.0168549.0033788-.0343839.0047303-.0512387-.0033788-.0026968-.008109-.0040452-.0128393-.0060678-.1182561-.7746484-.6635858-1.3605226-1.3183869-1.3605226h-.3351717c-.741297 0-1.3427138.7497033-1.3427138 1.6746968v.5184549c-.1777221.4503612-.544654.8063354-1.0034878.9728612h-.4601853c-.927128 0-1.6778855.5986839-1.6778855 1.3382742v.3344c0 .6553162.5892534 1.2007388 1.3683923 1.3167.0020273.0020226.002703.0053936.0047303.0094388.0141907-.0020226.0277057-.0020226.0425722-.0040452.0851444.0121355.1723161.017529.2621907.017529h.1608284c.5953351.0977581 1.0866049.504971 1.3028447 1.0497194v.3809193c0 .9243194.6014168 1.6740226 1.3427138 1.6740226h.3351717c.741297 0 1.3420382-.7497032 1.3420382-1.6740226v-.0600032c.1270408-.7018355.6879128-1.254 1.3954223-1.3706355h.0689264c.9264523 0 1.6778856-.6000322 1.6778856-1.3396226v-.3344c0-.7395903-.7514333-1.3382742-1.6778856-1.3382742"/><path d="m208.083614 4.05854129h-.475727c-.50884-.22450645-.886583-.6897-.988622-1.25130323v-.2400129c0-.08764516-.005406-.17326774-.015542-.25686774.001352-.01685484.003379-.03438387.00473-.05123871-.003378-.00269677-.008109-.00404516-.012839-.00606774-.118256-.77464839-.663586-1.36052258-1.318387-1.36052258h-.335171c-.741297 0-1.342714.74970322-1.342714 1.67469677v.51845484c-.177722.45036129-.544654.80633548-1.003488.97286129h-.460185c-.927128 0-1.677886.59868387-1.677886 1.33827419v.3344c0 .65531613.589254 1.20073871 1.368392 1.3167.002028.00202258.002703.00539355.004731.00943871.01419-.00202258.027705-.00202258.042572-.00404516.085144.01213549.172316.01752903.262191.01752903h.160828c.595335.09775807 1.086605.50497097 1.302845 1.04971936v.38091935c0 .92431936.601417 1.67402263 1.342714 1.67402263h.335171c.741297 0 1.342038-.74970327 1.342038-1.67402263v-.06000322c.127041-.70183549.687913-1.254 1.395423-1.37063549h.068926c.926452 0 1.677886-.60003225 1.677886-1.33962258v-.3344c0-.73959032-.751434-1.33827419-1.677886-1.33827419"/><path d="m7.62596621 70.8814181h-.47572752c-.50883923-.2245065-.8865831-.6897-.98862125-1.2513033v-.2400129c0-.0876451-.005406-.1732677-.01554224-.2568677.0013515-.0168548.00337875-.0343839.00473025-.0512387-.00337875-.0026968-.00810899-.0040452-.01283924-.0060678-.11825613-.7746483-.66358583-1.3605225-1.31838692-1.3605225h-.33517166c-.741297 0-1.3427139.7497032-1.3427139 1.6746967v.5184549c-.17772207.4503613-.54465395.8063355-1.00348774.9728613h-.46018528c-.92712807 0-1.67788556.5986838-1.67788556 1.3382742v.3344c0 .6553161.58925341 1.2007387 1.36839237 1.3167.00202725.0020225.002703.0053935.00473025.0094387.01419073-.0020226.02770572-.0020226.0425722-.0040452.08514442.0121355.17231608.017529.26219074.017529h.16082834c.59533515.0977581 1.0866049.504971 1.30284468 1.0497194v.3809193c0 .9243194.6014169 1.6740226 1.3427139 1.6740226h.33517166c.741297 0 1.34203815-.7497032 1.34203815-1.6740226v-.0600032c.12704087-.7018355.68791281-1.254 1.39542234-1.3706355h.06892643c.92645232 0 1.67788556-.6000322 1.67788556-1.3396225v-.3344c0-.7395904-.75143324-1.3382742-1.67788556-1.3382742"/><path d="m232.942143 132.258718c0 .889935-.723052 1.611997-1.615717 1.611997-.891989 0-1.615041-.722062-1.615041-1.611997 0-.889262.723052-1.611323 1.615041-1.611323.892665 0 1.615717.722061 1.615717 1.611323"/><path d="m62.4886343 154.742129h-.4757275c-.5088392-.224507-.8865831-.6897-.9886212-1.251304v-.240012c0-.087646-.005406-.173268-.0155423-.256868.0013515-.016855.0033788-.034384.0047303-.051239-.0033788-.002697-.008109-.004045-.0128393-.006068-.1182561-.774648-.6635858-1.360522-1.3183869-1.360522h-.3351717c-.741297 0-1.3427138.749703-1.3427138 1.674697v.518454c-.1777221.450362-.544654.806336-1.0034878.972862h-.4601853c-.927128 0-1.6778855.598684-1.6778855 1.338274v.3344c0 .655316.5892534 1.200739 1.3683923 1.3167.0020273.002022.002703.005393.0047303.009439.0141907-.002023.0277057-.002023.0425722-.004046.0851444.012136.1723161.017529.2621907.017529h.1608284c.5953351.097759 1.0866049.504971 1.3028447 1.04972v.380919c0 .92432.6014168 1.674023 1.3427138 1.674023h.3351717c.741297 0 1.3420382-.749703 1.3420382-1.674023v-.060003c.1270408-.701836.6879128-1.254 1.3954223-1.370636h.0689264c.9264523 0 1.6778856-.600032 1.6778856-1.339622v-.3344c0-.73959-.7514333-1.338274-1.6778856-1.338274"/></g><ellipse cx="124" cy="193" fill-rule="nonzero" opacity=".25" rx="80" ry="9"/><path d="m44 4h160v160h-160z" opacity="0"/></g><g transform="translate(46.666667 9.333333)"><path d="m116.952 17.2933333c-.458667.8053334-1.290667 1.3733334-2.285333 1.3733334-7.352 0-13.333334 5.9813333-13.333334 13.3333333 0 1.472-1.194666 2.6666667-2.6666663 2.6666667-1.472 0-2.6666667-1.1946667-2.6666667-2.6666667 0-9.408 7.002667-17.192 16.066667-18.464-9.205334-6.368-20.210667-10.288-32.066667-10.80266667v12.80266667c0 1.472-1.1946667 2.6666667-2.6666667 2.6666667s-2.6666666-1.1946667-2.6666666-2.6666667v-12.80266667c-11.856.51466667-22.8613334 4.43466667-32.0666667 10.80266667 9.064 1.272 16.0666667 9.056 16.0666667 18.464 0 1.472-1.1946667 2.6666667-2.6666667 2.6666667s-2.6666667-1.1946667-2.6666667-2.6666667c0-7.352-5.9813333-13.3333333-13.3333333-13.3333333-.9946667 0-1.8266667-.568-2.2853333-1.3733334-13.2586667 11.272-21.7146667 28.0453334-21.7146667 46.7066667v45.162667c14.9173333 14.765333 37.4506667 24.170666 62.6666667 24.170666 23.7573333 0 45.1306663-8.352 60.0000003-21.664v-47.669333c0-18.6613333-8.456-35.4346667-21.714667-46.7066667" fill="#d1d4d1"/><g fill="#ecf0f1"><path d="m96 32c0 1.472 1.1946667 2.6666667 2.6666667 2.6666667 1.4720003 0 2.6666663-1.1946667 2.6666663-2.6666667 0-7.352 5.981334-13.3333333 13.333334-13.3333333.994666 0 1.826666-.568 2.285333-1.3733334-1.565333-1.3306666-3.194667-2.5866666-4.885333-3.7573333-9.064 1.272-16.066667 9.056-16.066667 18.464"/><path d="m40 18.6666667c7.352 0 13.3333333 5.9813333 13.3333333 13.3333333 0 1.472 1.1946667 2.6666667 2.6666667 2.6666667s2.6666667-1.1946667 2.6666667-2.6666667c0-9.408-7.0026667-17.192-16.0666667-18.464-1.6906667 1.1706667-3.32 2.4266667-4.8853333 3.7573333.4586666.8053334 1.2906666 1.3733334 2.2853333 1.3733334"/><path d="m77.3333333 18.2026667c1.472 0 2.6666667-1.1946667 2.6666667-2.6666667v-12.80266667c-.8853333-.03733333-1.7733333-.06666666-2.6666667-.06666666-.8933333 0-1.7813333.02933333-2.6666666.06666666v12.80266667c0 1.472 1.1946666 2.6666667 2.6666666 2.6666667"/></g><path d="m78.6666667 133.333333c-22.1813334 0-42.28-7.282666-56.952-19.085333v17.674667c13.2506666 13.114666 33.264 17.410666 55.6586666 17.410666 21.1013334 0 40.0853337-3.36 53.2933337-15.184v-16.248c-14.098667 9.626667-32.2160003 15.432-52.0000003 15.432" fill="#e6e7e8"/><path d="m9.75466667 58.744c-2.62133334.44-4.42133334 2.92-4.42133334 5.5813333v6.6373334c0 .5733333-.464 1.0373333-1.04 1.0373333-2.37066666 0-4.29333333 1.9226667-4.29333333 4.296v8.448c0 1.7973333 1.45866667 3.256 3.256 3.256h1.03733333c.576 0 1.04.464 1.04 1.04v6.6373333c0 2.6586667 1.8 5.1386667 4.42133334 5.5786667 3.33066663.562667 6.24533333-2.024 6.24533333-5.256v-32c0-3.232-2.9146667-5.816-6.24533333-5.256" fill="#ecf0f1"/><path d="m8 82.6666667c-.69333333 0-1.38666667-.2933334-1.89333333-.7733334-.48-.5066666-.77333334-1.2-.77333334-1.8933333s.29333334-1.3866667.77333334-1.8933333c1.01333333-.9866667 2.8-.9866667 3.78666666 0 .47999997.5066666.77333337 1.2.77333337 1.8933333s-.2933334 1.3866667-.77333337 1.8933333c-.50666666.48-1.2.7733334-1.89333333.7733334" fill="#a5a5a4"/><path d="m144.912 101.256c2.621333-.44 4.421333-2.92 4.421333-5.5786667v-5.632c0-1.128.914667-2.0453333 2.045334-2.0453333h.032c1.797333 0 3.256-1.4586667 3.256-3.256v-9.488c0-1.7973333-1.458667-3.256-3.256-3.256h-.032c-1.130667 0-2.045334-.9146667-2.045334-2.0453333v-5.6293334c0-2.6586666-1.8-5.1413333-4.421333-5.5813333-3.330667-.56-6.245333 2.024-6.245333 5.256v32c0 3.232 2.914666 5.818667 6.245333 5.256" fill="#ecf0f1"/><path d="m146.666667 82.6666667c-.693334 0-1.386667-.2933334-1.893334-.7733334-.48-.5066666-.773333-1.1733333-.773333-1.8933333s.293333-1.3866667.773333-1.8933333c.986667-.9866667 2.8-.9866667 3.786667 0 .48.5066666.773333 1.2.773333 1.8933333s-.293333 1.3866667-.773333 1.8933333c-.506667.48-1.2.7733334-1.893333.7733334" fill="#a5a5a4"/><path d="m154.666667 13.3333333h-4.229334l-6.437333-6.4373333v-4.22933333c0-1.472-1.194667-2.66666667-2.666667-2.66666667s-2.666666 1.19466667-2.666666 2.66666667v4.22933333l-6.437334 6.4373333h-4.229333c-1.472 0-2.666667 1.1946667-2.666667 2.6666667s1.194667 2.6666667 2.666667 2.6666667h4.229333l6.437334 6.4373333v4.2293333c0 1.472 1.194666 2.6666667 2.666666 2.6666667s2.666667-1.1946667 2.666667-2.6666667v-4.2293333l6.437333-6.4373333h4.229334c1.472 0 2.666666-1.1946667 2.666666-2.6666667s-1.194666-2.6666667-2.666666-2.6666667" fill="#f3d55b"/><path d="m77.3333333 21.3333333c-33.7333333 0-61.3333333 23.7893334-61.3333333 49.008v33.7679997c14.9173333 11.04 37.4506667 21.224 62.6666667 21.224 23.7573333 0 45.1306663-9.397333 60.0000003-19.352v-35.6399997c0-25.2186666-27.6-49.008-61.3333337-49.008" fill="#ecf0f1"/><path d="m77.3333333 29.3333333c-33.7333333 0-61.3333333 20.128-61.3333333 41.4693334v28.5706666c14.9173333 9.3413337 37.4506667 17.9599997 62.6666667 17.9599997 23.7573333 0 45.1306663-7.949333 60.0000003-16.373333v-30.1573333c0-21.3413334-27.6-41.4693334-61.3333337-41.4693334" fill="#38454f"/><path d="m40.2533333 38.2746667c-14.712 7.864-24.2533333 19.984-24.2533333 32.528v28.5706666c6.3813333 3.9973337 14.1626667 7.8533337 22.944 10.9653337 2.36-11.5493337 3.7226667-25.130667 3.7226667-39.6720003 0-11.5866667-.8693334-22.5626667-2.4133334-32.392" fill="#475b68"/><path d="m138.666667 70.8026667c0-12.544-9.541334-24.664-24.253334-32.528-1.544 9.8293333-2.413333 20.8053333-2.413333 32.392 0 14.8533333 1.426667 28.7013333 3.88 40.4080003 8.602667-2.872 16.312-6.448 22.786667-10.114667z" fill="#475b68"/><path d="m21.7146667 114.248v7.008c13.2506666 13.114667 33.264 17.410667 55.6586666 17.410667 21.1013334 0 40.0853337-3.36 53.2933337-15.184v-5.581334c-14.098667 9.626667-32.2160003 15.432-52.0000003 15.432-22.1813334 0-42.28-7.282666-56.952-19.085333" fill="#fff"/><path d="m71.9973333 53.8613333c-1.3546666 0-2.512-1.0266666-2.6506666-2.4026666-.1466667-1.464.9226666-2.7706667 2.3866666-2.9173334 3.5786667-.36 7.256-.5413333 10.9333334-.5413333 1.472 0 2.6666666 1.1946667 2.6666666 2.6666667s-1.1946666 2.6666666-2.6666666 2.6666666c-3.5013334 0-7 .1733334-10.4.5146667-.0906667.008-.1813334.0133333-.2693334.0133333" fill="#546a79"/><path d="m29.3333333 82.6666667c-1.472 0-2.6666666-1.1946667-2.6666666-2.6666667 0-13.408 11.424-24.0053333 31.344-29.0773333 1.424-.3626667 2.8773333.4986666 3.2426666 1.928.3626667 1.4266666-.5013333 2.88-1.928 3.2426666-17.3653333 4.4186667-27.3253333 13.1333334-27.3253333 23.9066667 0 1.472-1.1946667 2.6666667-2.6666667 2.6666667" fill="#546a79"/></g></g></svg>