<svg height="320" viewBox="0 0 320 320" width="320" xmlns="http://www.w3.org/2000/svg" xmlns:xlink="http://www.w3.org/1999/xlink"><linearGradient id="a" x1="101.999998%" x2="0%" y1="100.999999%" y2="0%"><stop offset="0" stop-color="#3023ae"/><stop offset="1" stop-color="#c86dd7"/></linearGradient><g fill="none" fill-rule="evenodd" transform="translate(10 10)"><g opacity=".2" stroke="url(#a)" stroke-width="20"><path d="m265 150.000781c0 63.513011-51.487339 114.999219-115 114.999219-63.5134419 0-115-51.486208-115-114.999219 0-63.5137916 51.4865581-115.000781 115-115.000781 63.512661 0 115 51.4869894 115 115.000781z"/><path d="m300 150.001586c0 82.842318-67.157682 149.998414-150 149.998414-82.8431113 0-150-67.156096-150-149.998414 0-82.8454903 67.1568887-150.001586 150-150.001586 82.842318 0 150 67.1560957 150 150.001586z"/></g><path d="m70 70h160v160h-160z" fill="#fff" opacity="0"/><g transform="translate(72.666667 72.666667)"><path d="m115.541997 69.8618062-1.381334-5.1493334 37.077334-9.936c-2.450667-8.048-6.093334-15.4293333-10.709334-21.976l-58.9599997 15.7973334-1.3786667-5.152 56.8240004-15.224c-7.197334-8.736-16.189334-15.7306667-26.264-20.57066668l-97.2080004 26.04533328c-6.31999996 9.232-10.61866663 19.784-12.49066663 30.9546667l11.14933333-2.9866667 1.3786667 5.152-13.26400003 3.5546667c-.728 7.9813333-.208 16.1893333 1.69066667 24.392l95.49866666-25.5866667 1.3786667 5.1493334-95.48266669 25.5866666c1.03466666 3.3733332 2.22666666 6.6586672 3.66133333 9.7866672 7.36799996-1.202667 11.11466666 7.776 7.38399996 12.72.4373334.610666.92 1.178666 1.3733334 1.773333l40.6586666-10.896 1.3813334 5.152-38.3093334 10.264c6.8506667 7.693333 15.1386667 13.906667 24.336 18.328l59.2746664-15.882667 1.381334 5.149334-52.5493337 14.08c14.1173333 4.909333 29.792 5.821333 45.3173333 1.661333 15.5440004-4.165333 28.6986664-12.786667 38.4773334-24.114667l-17.162667 4.6-1.381333-5.152 23.877333-6.397333c.402667-.589333.810667-1.173333 1.197334-1.770667-2.248-4.082666-1.330667-10.064 4.506666-11.626666.605334-.162667 1.189334-.253334 1.752-.288 1.936-4.6 3.373334-9.4106672 4.397334-14.3360005l-16.704 4.4746667-1.381334-5.1493334 19.061334-5.1093333c1.146666-8.8693333.752-18.0586667-1.376-27.24z" fill="#c68630"/><path d="m57.2806633 2.65113952c-4.968 1.33066666-9.6826667 3.128-14.1306667 5.30933333.16 3.29066665-1.496 6.60799995-5.616 7.71199995-2.3253333.6213334-4.312.2266667-5.888-.744-4.7413333 3.4693334-9.0266666 7.448-12.8133333 11.8293334l83.8346667-22.46400002c-14.1333334-4.92266666-29.8426667-5.80533333-45.3866667-1.64266666" fill="#c68630"/><path d="m119.944663 73.3311395c0 30.1920005-24.4746664 54.6666665-54.6666664 54.6666665s-54.6666666-24.474666-54.6666666-54.6666665c0-30.192 24.4746666-54.6666667 54.6666666-54.6666667s54.6666664 24.4746667 54.6666664 54.6666667" fill="#dc9628"/><path d="m85.2779966 70.6644728c0 16.936-13.7306666 30.6666672-30.6666666 30.6666672s-30.6666667-13.7306672-30.6666667-30.6666672 13.7306667-30.6666666 30.6666667-30.6666666 30.6666666 13.7306666 30.6666666 30.6666666" fill="#eeaf4b"/><g fill="#f3d55b"><path d="m7.88332997 6.12580618c.38133334 1.42133334-.464 2.88533334-1.88533333 3.26666667s-2.88533333-.464-3.26666667-1.88533333c-.38133333-1.424.464-2.88533334 1.88533334-3.26666667 1.424-.38133333 2.88533333.46133333 3.26666666 1.88533333"/><path d="m29.2166633 150.12314c.3813333 1.424-.4613333 2.885333-1.8853333 3.266666-1.4213334.381334-2.8826667-.461333-3.264-1.885333-.3813334-1.421333.4613333-2.885333 1.8853333-3.264 1.4213333-.384 2.8853333.461333 3.264 1.882667"/><path d="m149.216663 136.792473c.381334 1.421333-.461333 2.885333-1.885333 3.264-1.421333.381333-2.885333-.461333-3.266667-1.885333-.378666-1.421334.464-2.882667 1.888-3.264 1.421334-.381334 2.882667.461333 3.264 1.885333"/><path d="m7.88332997 144.792473c.38133334 1.421333-.46133333 2.885333-1.88533333 3.264-1.42133333.381333-2.88533333-.461333-3.26666667-1.885333-.38133333-1.421334.464-2.882667 1.88533334-3.264 1.424-.381334 2.88533333.461333 3.26666666 1.885333"/><path d="m19.3339966 15.5818062c.3813334 1.4213333-.464 2.8826666-1.8853333 3.2666666-1.424.3786667-2.8853333-.464-3.2666667-1.888-.3813333-1.4213333.4613334-2.8853333 1.8853334-3.264 1.424-.384 2.8853333.4613334 3.2666666 1.8853334"/><path d="m141.216663 8.79247285c.381334 1.42133335-.464 2.88533335-1.885333 3.26666665s-2.885333-.464-3.266667-1.888c-.381333-1.42133332.464-2.88266665 1.885334-3.26399998 1.424-.38133334 2.885333.464 3.266666 1.88533333"/><path d="m137.37933 91.6191395c-.013333-.1546667-.005333-.3146667-.026667-.4666667-.618666-4.7013333-4.282666-9.4586666-10.090666-9.4586666-.952 0-1.933334.136-2.914667.3973333-6.021333 1.6133333-8.122667 6.872-7.530667 11.3706667.152 1.1546666.490667 2.3093333.997334 3.4l-42.9893337 11.5199998c-1.616-3.157333-4.6746667-5.656-8.8746667-5.656-.9546666 0-1.9333333.133334-2.9146666.394667-5.6186667 1.506667-7.7893334 6.178667-7.5813334 10.450667l-39.6346666 10.621333c1.1893333 1.557333 2.432 3.064 3.7306666 4.52l37.3973334-10.021333c1.6666666 2.962666 4.6293333 5.258666 8.648 5.258666.9546666 0 1.9333333-.133333 2.9146666-.397333 5.4186667-1.453333 7.6426667-5.853333 7.6053334-9.994667l45.538667-12.205333c1.469333.96 3.221333 1.568 5.253333 1.568.954667 0 1.933333-.133333 2.914667-.397333 3.237333-.869334 5.309333-2.8000005 6.472-5.0906672l16.68-4.4693333c.397333-1.912.725333-3.8373333.976-5.784zm-70.2506667 26.7813335c-3.6586667.973333-5.9786667-1.888-6.3386667-4.605333-.1333333-1.032-.272-4.477334 3.6266667-5.522667.5306667-.141333 1.0453333-.216 1.5333333-.216 2.864 0 4.496 2.501333 4.8053334 4.821333.1333333 1.032.272 4.477334-3.6266667 5.522667zm61.3119997-21.0293335c-3.656.9786667-5.978666-1.888-6.336-4.6053333-.136-1.032-.274666-4.4773334 3.624-5.5226667.530667-.1413333 1.048-.216 1.533334-.216 2.864 0 4.498666 2.4986667 4.805333 4.8213333.136 1.032.272 4.4773334-3.626667 5.5226667z"/><path d="m102.66733 4.29380618-83.8346667 22.46400002c-1.9066667 2.2053333-3.648 4.5386666-5.2906667 6.9386666l97.2080004-26.04533328c-2.629334-1.264-5.322667-2.39466667-8.082667-3.35733334"/><path d="m21.3899966 72.2964728c.9493334 0 1.9306667-.1306666 2.912-.3946666 5.4186667-1.4533334 7.64-5.8533334 7.6053334-9.9973334l31.2746666-8.3786666c1.5546667 3.3466666 4.712 6.056 9.0933334 6.056.952 0 1.9333333-.1333334 2.9146666-.3973334 5.8186667-1.5573333 7.9493334-6.512 7.5546667-10.904l57.7839997-15.48c-1.112-1.5813333-2.296-3.0986666-3.514666-4.5786666l-55.9653337 14.9946666c-1.7066667-2.768-4.5813333-4.8586666-8.4186667-4.8586666-.9546666 0-1.9333333.1333333-2.9146666.3973333-5.2186667 1.3973333-7.4826667 5.5333333-7.6133334 9.5386667l-31.4853333 8.4346666c-1.616-3.1546666-4.6746667-5.656-8.8773333-5.656-.952 0-1.9306667.1333334-2.912.3973334-5.6186667 1.5066666-7.7893334 6.1786666-7.5813334 10.4506666l-10.19466663 2.7306667c-.31733333 1.8906667-.56266666 3.7973333-.736 5.72l12.42400003-3.3306667c1.6693333 2.9626667 4.6293333 5.256 8.6506666 5.256zm49.7066667-28.392c.5306667-.1413333 1.0453333-.2133333 1.5333333-.2133333 2.864 0 4.496 2.5013333 4.8053334 4.8213333.1333333 1.032.272 4.4773334-3.6266667 5.5226667-3.6533333.9786667-5.9786667-1.8906667-6.3386667-4.6053333-.136-1.032-.272-4.48 3.6266667-5.5253334zm-50.888 12.7146667c.5306667-.1413333 1.0453333-.2133333 1.5306667-.2133333 2.8666666 0 4.4986666 2.4986666 4.808 4.8213333.1333333 1.032.2746666 4.4773333-3.6266667 5.5226667-3.6773333.9813333-5.9786667-1.8933334-6.3386667-4.6053334-.136-1.032-.2746666-4.4773333 3.6266667-5.5253333z"/><path d="m119.832663 126.21914c-.618666-4.704-4.282666-9.461334-10.093333-9.461334-.954667 0-1.933333.133334-2.914667.397334-6.024 1.613333-8.1226664 6.872-7.5279997 11.368.152 1.154666.4906667 2.312.9973337 3.402666l-56.4080004 15.114667c2.6346667 1.264 5.3386667 2.384 8.1066667 3.346667l52.1413337-13.970667c1.469333.96 3.221333 1.565333 5.253333 1.565333.952 0 1.933333-.133333 2.914667-.397333 3.24-.866667 5.312-2.8 6.472-5.090667l17.013333-4.56c1.914667-2.216 3.688-4.538666 5.333333-6.949333l-21.261333 5.696c-.016-.152-.005333-.309333-.026667-.461333zm-8.912 6.216c-3.656.973333-5.978666-1.890667-6.338666-4.608-.136-1.032-.274667-4.477334 3.624-5.522667.530666-.141333 1.045333-.213333 1.533333-.213333 2.864 0 4.498667 2.498666 4.805333 4.821333.133334 1.032.274667 4.477333-3.624 5.522667z"/><path d="m106.037997 79.9844728c.954666 0 1.933333-.136 2.914666-.3973333 5.421334-1.4533333 7.64-5.8533333 7.605334-9.9973333l36.016-9.6506667c-.2-.8666667-.346667-1.736-.581334-2.6026667-.229333-.864-.496-1.712-.754666-2.56l-35.970667 9.6373334c-1.616-3.1546667-4.674667-5.656-8.874667-5.656-.954666 0-1.933333.136-2.914666.3973333-5.618667 1.5066667-7.7893337 6.1786667-7.5813337 10.4506667l-93.89066666 25.1573333c.20266667.8666667.36 1.736.592 2.6026667.232.8666666.54133333 1.6933333.80266667 2.5466666l93.98933329-25.1866666c1.6693334 2.9626666 4.6293334 5.2586666 8.6480004 5.2586666zm-1.178667-15.6773333c.530667-.1413333 1.045333-.216 1.533333-.216 2.864 0 4.496 2.5013333 4.805334 4.8213333.133333 1.032.272 4.4773334-3.626667 5.5226667-3.658667.976-5.978667-1.888-6.338667-4.6053333-.133333-1.0293334-.272-4.4773334 3.626667-5.5226667z"/></g></g></g></svg>