<svg height="57" viewBox="0 0 132 57" width="132" xmlns="http://www.w3.org/2000/svg"><path d="m238.257143 364.75c2.410023-2.788349.004269-7.124773.006215-7.125h-38.14308c-3.932421 0-7.120278-3.197978-7.120278-7.125 0-3.935029 3.197535-7.125 7.120278-7.125h64.536865s2.882815-3.209948 0-7.125h-38.129215c-3.936646 0-7.127928-3.197978-7.127928-7.125 0-3.935029 3.189085-7.125 7.127928-7.125h68.715573c3.936646 0 7.127928 3.197978 7.127928 7.125 0 3.935029-3.189086 7.125-7.127928 7.125h-7.957787s-2.77794 4.040101 0 7.125h30.594008c3.932421 0 7.120278 3.197978 7.120278 7.125 0 3.935029-3.197535 7.125-7.120278 7.125h-60.765436c-1.276172.885841-3.422691 5.20459 0 7.125h38.140191c3.930584 0 7.116952 3.197978 7.116952 7.125 0 3.935029-3.190099 7.125-7.116952 7.125h-72.508954c-3.930584 0-7.116952-3.197978-7.116952-7.125 0-3.935029 3.190099-7.125 7.116952-7.125zm.006215-7.125h.069544z" fill="#360166" fill-rule="evenodd" opacity=".05" transform="translate(-193 -322)"/></svg>