<svg height="174" viewBox="0 0 174 174" width="174" xmlns="http://www.w3.org/2000/svg"><g fill="none" fill-rule="evenodd" transform="translate(2 2)"><path d="m0 0h170v170h-170z" fill="#e2cdf5"/><path d="m0 0h170v170h-170z" stroke="#cdb0f1" stroke-linejoin="round" stroke-width="3"/><path d="m0 0h170v35.1724138h-170z" fill="#e2cdf5"/><path d="m0 0h170v35.1724138h-170z" stroke="#cdb0f1" stroke-linejoin="round" stroke-width="3"/><path d="m23.4482759 55.6896552h123.1034481v87.9310348h-123.1034481z" fill="#e8dbf6"/><path d="m23.4482759 55.6896552h123.1034481v87.9310348h-123.1034481z" stroke="#cdb0f1" stroke-linejoin="round" stroke-width="3"/><path d="m23.4482759 55.6896552h123.1034481v29.3103448h-123.1034481z" fill="#e8dbf6"/><g stroke="#cdb0f1" stroke-linejoin="round"><path d="m23.4482759 55.6896552h123.1034481v29.3103448h-123.1034481z" stroke-width="3"/><path d="m35.1724138 70.3448276h23.4482759" stroke-width="3"/><path d="m134.827586 64.4827586-11.724138 11.724138m0-11.724138 11.724138 11.724138" stroke-width="3"/><g stroke-width="2" transform="translate(32 92)"><g fill="#e8dbf6"><path d="m19.0402711 27.22334c0 3.0100604-2.10563 4.470825-6.3616906 4.470825h-12.6785805v-20.2293763h12.4545774c4.2560606 0 6.3616905 1.4607646 6.3616905 4.4265594v1.8148893c0 .9738431-.3584051 1.7706238-1.0752153 2.3903421-.7616108.5754527-1.7472248.8853118-3.0464433.9295774 2.9120414.1327968 4.3456618 1.3722334 4.3456618 3.8068411zm-4.3904625-1.9476861c0-.7967807-.1792025-1.3722334-.5824083-1.7263581-.4032057-.3541248-1.0752153-.5311871-2.0160287-.5311871h-7.07850079v4.5150905h7.07850079c.9408134 0 1.612823-.1770624 2.0160287-.4869215.4032058-.3541248.5824083-.9295775.5824083-1.7706238zm-2.7776395-6.0201207c.9408134 0 1.6128229-.1770624 1.971228-.4426559.3584051-.3098592.5824083-.8410463.5824083-1.5935614s-.2240032-1.2837022-.5824083-1.5492958c-.3584051-.3098591-1.0304146-.4426559-1.971228-.4426559h-6.89929829v4.028169z" fill-rule="nonzero"/><path d="m105.819107 31.694165h-11.2449603c-1.971228 0-3.4944497-.5311871-4.6144657-1.637827-1.1200159-1.1066398-1.6576236-2.61167-1.6576236-4.5593561v-7.4366197c0-1.9476861.5376077-3.3641851 1.6576236-4.470825 1.120016-1.1066398 2.6432377-1.6378269 4.6144657-1.6378269h11.2449603v4.028169h-10.035343c-1.612823 0-2.4192345.7967807-2.4192345 2.390342v6.8169014c0 1.5492958.8064115 2.3460765 2.4192345 2.3460765h10.035343z" fill-rule="nonzero"/><path d="m65.8569378 31.694165v-13.8108652c0-1.9476861.5376077-3.4527163 1.6576236-4.5593561 1.120016-1.0623743 2.6432376-1.637827 4.6144657-1.637827h6.31689c1.971228 0 3.6736523.5754527 4.7488676 1.637827 1.1200159 1.1066398 1.9712281 2.5231388 1.9712281 4.4708249v13.8993964h-5.0624721v-13.501006c0-1.5935614-.8064115-2.3460765-2.4640351-2.3460765h-5.1072727c-1.5680224 0-2.3744339.7525151-2.3744339 2.3460765v13.501006z" fill-rule="nonzero"/><path d="m57.389619 12.3501h5.107273v19.344065h-5.107273z" fill-rule="nonzero"/></g><path d="m37.9013397 28.8169014c3.8976555 0 7.0785008-3.1428571 7.0785008-6.9939638 0-3.8511066-3.1808453-6.9939638-7.0785008-6.9939638-3.9424561 0-7.1233014 3.1428572-7.1233014 6.9939638 0 3.8511067 3.1808453 6.9939638 7.1233014 6.9939638z" fill="#e2cdf5"/><path d="m46.951377 27.5331992v-.0442656c-.4032084.5754527-.8512177 1.1066398-1.3888289 1.5935614-.5376112.4869215-1.0752224.9295774-1.6576345 1.3279678-.4032084.2213279-.8512177.4426559-1.2544261.6639839l-.0448009-.0442656c-1.2096252.6197183-2.5536532.9295775-3.8976811 1.0181086-.7616159.0885312-1.5232317.0442656-2.2848476-.0442656-.0448009 0-.1344028 0-.1792037-.0442655-1.1200233-.1327968-1.3888289-.0885312-2.1056438.7082494l-2.3296485 2.3018109c3.0016624 1.2837022 6.3169314 1.5492958 9.4977976.8853119.044801-.0442656.0896019-.0442656.1344028-.0442656 1.8816392-.4426559 3.7184774-1.195171 5.331311-2.3460765l6.8993435 6.2857143c3.0912643 2.7887324 6.0033249 3.8953723 9.5873995 3.8953723h42.5608857v-4.1167002h-42.5160848c-1.8368382 0-4.2560885-.7967807-6.0481258-2.4788733zm-13.7090853-14.917505c1.6128336-.7967807 3.4048709-1.1066399 5.1521072-1.0623743h.0896019.0448009c.3136065.0442656.6272131.0442656.9408196.0885312.0448009 0 .0896019.0442656.1344028.0442656 1.1200233.1327968 1.3888289.1327968 2.1504447-.6639839l2.2848476-2.34607646c-.3584075-.13279678-.672014-.26559356-1.0304215-.39839034-1.2096251-.39839035-2.4640512-.66398391-3.7184773-.75251509v-.0442656h-.0896019c-2.5536531-.17706237-5.1521072.22132797-7.5265566 1.28370222-.8960187.35412474-1.7472364.84104627-2.5536531 1.41649897l-6.9441445-6.28571427c-3.0912644-2.78873239-5.958524-3.89537223-9.5873995-3.89537223h-12.589062v4.1167002h12.544261c1.8368382 0 4.2560886.79678069 6.0481259 2.47887324l10.3490153 9.56136816h.044801c.3584074-.5754527.8064167-1.1066398 1.3440279-1.5935613s1.0752224-.9295775 1.7024354-1.3279678c.3584075-.221328.7616159-.442656 1.2096252-.6197183zm18.5923869 14.7847082-2.0608429-1.7263581c-1.0304214-.8853119-1.2096252-1.2394367-1.1648242-2.3903421v-.0442656c0-.0885312.0448009-.2213279.0448009-.3541247 0-.0885312 0-.1770624.0448009-.2655936 0-.0885312 0-.1327968 0-.1770624.1792038-2.832998-.8512177-5.7102615-3.1360652-7.8792756-.5376112-.4869215-1.0752224-.9295775-1.6576345-1.3279678l9.7666032-9.34004027c3.0016625-2.87726358 6.0033249-3.89537223 9.5873995-3.89537223h42.5608857v4.1167002h-42.5160848c-1.8368382 0-4.2560885.79678069-6.0481258 2.47887324-.8512177.79678068-7.0337464 6.90543256-7.0337464 6.90543256 2.643255 3.5412475 3.36007 7.9235413 2.3296485 11.9517103-.0448009.0442656-.0448009.0885312-.0896019.1327968-.1344027.6197183-.3584074 1.2394366-.627213 1.8148893zm-27.8661799-11.1549296 2.016042 1.7706238c1.0304214.8410463 1.2544261 1.195171 1.1648242 2.390342v.0442656c0 .1770624-.0448009.3983904-.0448009.6197183-.0448009.5754528-.0448009 1.1066399 0 1.6820926.2240047 2.3018109 1.2544261 4.5593561 3.0912643 6.3299799.5376112.4869215 1.0752224.9295774 1.7024355 1.3279678l-9.8562051 9.3400402c-3.0016625 2.8772636-5.958524 3.8953723-9.5873995 3.8953723h-12.4546592v-4.1167002h12.4546592c1.7920373 0 4.2560885-.7967807 6.0033249-2.4788733.8512177-.7967807 7.0785473-6.9054326 7.0785473-6.9054326-2.8672597-3.8953722-3.5392737-8.7645875-1.9264401-13.1468813l.0448009.0442656c.0896019-.2655935.1792037-.5311871.3136065-.7967807z" fill="#e8dbf6"/></g></g><g fill="#cdb0f1" transform="translate(2 38)"><path d="m153.344828 102.689655c-1.617931 0-2.931035-1.313103-2.931035-2.9310343 0-1.617931 1.313104-2.9310345 2.931035-2.9310345s2.931034 1.3131035 2.931034 2.9310345c0 1.6179313-1.313103 2.9310343-2.931034 2.9310343"/><path d="m162.137931 93.8965517c-1.617931 0-2.931034-1.3131034-2.931034-2.9310345 0-1.617931 1.313103-2.9310344 2.931034-2.9310344s2.931035 1.3131034 2.931035 2.9310344c0 1.6179311-1.313104 2.9310345-2.931035 2.9310345"/><path d="m162.137931 111.482759c-1.617931 0-2.931034-1.313104-2.931034-2.931035s1.313103-2.931034 2.931034-2.931034 2.931035 1.313103 2.931035 2.931034-1.313104 2.931035-2.931035 2.931035"/><path d="m144.551724 111.482759c-1.617931 0-2.931034-1.313104-2.931034-2.931035s1.313103-2.931034 2.931034-2.931034 2.931035 1.313103 2.931035 2.931034-1.313104 2.931035-2.931035 2.931035"/><path d="m153.344828 120.275862c-1.617931 0-2.931035-1.313103-2.931035-2.931034s1.313104-2.931035 2.931035-2.931035 2.931034 1.313104 2.931034 2.931035-1.313103 2.931034-2.931034 2.931034"/><path d="m162.137931 129.068966c-1.617931 0-2.931034-1.313104-2.931034-2.931035s1.313103-2.931034 2.931034-2.931034 2.931035 1.313103 2.931035 2.931034-1.313104 2.931035-2.931035 2.931035"/><path d="m144.551724 129.068966c-1.617931 0-2.931034-1.313104-2.931034-2.931035s1.313103-2.931034 2.931034-2.931034 2.931035 1.313103 2.931035 2.931034-1.313104 2.931035-2.931035 2.931035"/><path d="m126.965517 111.482759c-1.617931 0-2.931034-1.313104-2.931034-2.931035s1.313103-2.931034 2.931034-2.931034 2.931035 1.313103 2.931035 2.931034-1.313104 2.931035-2.931035 2.931035"/><path d="m135.758621 120.275862c-1.617931 0-2.931035-1.313103-2.931035-2.931034s1.313104-2.931035 2.931035-2.931035 2.931034 1.313104 2.931034 2.931035-1.313103 2.931034-2.931034 2.931034"/><path d="m126.965517 129.068966c-1.617931 0-2.931034-1.313104-2.931034-2.931035s1.313103-2.931034 2.931034-2.931034 2.931035 1.313103 2.931035 2.931034-1.313104 2.931035-2.931035 2.931035"/><path d="m109.37931 111.482759c-1.617931 0-2.931034-1.313104-2.931034-2.931035s1.313103-2.931034 2.931034-2.931034 2.931035 1.313103 2.931035 2.931034-1.313104 2.931035-2.931035 2.931035"/><path d="m118.172414 120.275862c-1.617931 0-2.931035-1.313103-2.931035-2.931034s1.313104-2.931035 2.931035-2.931035 2.931034 1.313104 2.931034 2.931035-1.313103 2.931034-2.931034 2.931034"/><path d="m109.37931 129.068966c-1.617931 0-2.931034-1.313104-2.931034-2.931035s1.313103-2.931034 2.931034-2.931034 2.931035 1.313103 2.931035 2.931034-1.313104 2.931035-2.931035 2.931035"/><path d="m91.7931034 111.482759c-1.617931 0-2.9310344-1.313104-2.9310344-2.931035s1.3131034-2.931034 2.9310344-2.931034c1.6179311 0 2.9310345 1.313103 2.9310345 2.931034s-1.3131034 2.931035-2.9310345 2.931035"/><path d="m100.586207 120.275862c-1.6179311 0-2.9310346-1.313103-2.9310346-2.931034s1.3131035-2.931035 2.9310346-2.931035c1.617931 0 2.931034 1.313104 2.931034 2.931035s-1.313103 2.931034-2.931034 2.931034"/><path d="m91.7931034 129.068966c-1.617931 0-2.9310344-1.313104-2.9310344-2.931035s1.3131034-2.931034 2.9310344-2.931034c1.6179311 0 2.9310345 1.313103 2.9310345 2.931034s-1.3131034 2.931035-2.9310345 2.931035"/><path d="m74.2068966 111.482759c-1.6179311 0-2.9310345-1.313104-2.9310345-2.931035s1.3131034-2.931034 2.9310345-2.931034c1.617931 0 2.9310344 1.313103 2.9310344 2.931034s-1.3131034 2.931035-2.9310344 2.931035"/><path d="m83 120.275862c-1.617931 0-2.9310345-1.313103-2.9310345-2.931034s1.3131035-2.931035 2.9310345-2.931035 2.9310345 1.313104 2.9310345 2.931035-1.3131035 2.931034-2.9310345 2.931034"/><path d="m74.2068966 129.068966c-1.6179311 0-2.9310345-1.313104-2.9310345-2.931035s1.3131034-2.931034 2.9310345-2.931034c1.617931 0 2.9310344 1.313103 2.9310344 2.931034s-1.3131034 2.931035-2.9310344 2.931035"/><path d="m56.6206897 111.482759c-1.6179311 0-2.9310345-1.313104-2.9310345-2.931035s1.3131034-2.931034 2.9310345-2.931034c1.617931 0 2.9310344 1.313103 2.9310344 2.931034s-1.3131034 2.931035-2.9310344 2.931035"/><path d="m65.4137931 120.275862c-1.617931 0-2.9310345-1.313103-2.9310345-2.931034s1.3131035-2.931035 2.9310345-2.931035 2.9310345 1.313104 2.9310345 2.931035-1.3131035 2.931034-2.9310345 2.931034"/><path d="m56.6206897 129.068966c-1.6179311 0-2.9310345-1.313104-2.9310345-2.931035s1.3131034-2.931034 2.9310345-2.931034c1.617931 0 2.9310344 1.313103 2.9310344 2.931034s-1.3131034 2.931035-2.9310344 2.931035"/><path d="m39.0344828 111.482759c-1.6179311 0-2.9310345-1.313104-2.9310345-2.931035s1.3131034-2.931034 2.9310345-2.931034c1.617931 0 2.9310344 1.313103 2.9310344 2.931034s-1.3131034 2.931035-2.9310344 2.931035"/><path d="m47.8275862 120.275862c-1.617931 0-2.9310345-1.313103-2.9310345-2.931034s1.3131035-2.931035 2.9310345-2.931035 2.9310345 1.313104 2.9310345 2.931035-1.3131035 2.931034-2.9310345 2.931034"/><path d="m39.0344828 129.068966c-1.6179311 0-2.9310345-1.313104-2.9310345-2.931035s1.3131034-2.931034 2.9310345-2.931034c1.617931 0 2.9310344 1.313103 2.9310344 2.931034s-1.3131034 2.931035-2.9310344 2.931035"/><path d="m21.4482759 111.482759c-1.6179311 0-2.9310345-1.313104-2.9310345-2.931035s1.3131034-2.931034 2.9310345-2.931034c1.617931 0 2.9310344 1.313103 2.9310344 2.931034s-1.3131034 2.931035-2.9310344 2.931035"/><path d="m30.2413793 120.275862c-1.617931 0-2.9310345-1.313103-2.9310345-2.931034s1.3131035-2.931035 2.9310345-2.931035 2.9310345 1.313104 2.9310345 2.931035-1.3131035 2.931034-2.9310345 2.931034"/><path d="m21.4482759 129.068966c-1.6179311 0-2.9310345-1.313104-2.9310345-2.931035s1.3131034-2.931034 2.9310345-2.931034c1.617931 0 2.9310344 1.313103 2.9310344 2.931034s-1.3131034 2.931035-2.9310344 2.931035"/><path d="m12.6551724 102.689655c-1.617931 0-2.93103447-1.313103-2.93103447-2.9310343 0-1.617931 1.31310347-2.9310345 2.93103447-2.9310345s2.9310345 1.3131035 2.9310345 2.9310345c0 1.6179313-1.3131035 2.9310343-2.9310345 2.9310343"/><path d="m3.86206897 93.8965517c-1.61793104 0-2.93103449-1.3131034-2.93103449-2.9310345 0-1.617931 1.31310345-2.9310344 2.93103449-2.9310344 1.61793103 0 2.93103448 1.3131034 2.93103448 2.9310344 0 1.6179311-1.31310345 2.9310345-2.93103448 2.9310345"/><path d="m3.86206897 111.482759c-1.61793104 0-2.93103449-1.313104-2.93103449-2.931035s1.31310345-2.931034 2.93103449-2.931034c1.61793103 0 2.93103448 1.313103 2.93103448 2.931034s-1.31310345 2.931035-2.93103448 2.931035"/><path d="m12.6551724 120.275862c-1.617931 0-2.93103447-1.313103-2.93103447-2.931034s1.31310347-2.931035 2.93103447-2.931035 2.9310345 1.313104 2.9310345 2.931035-1.3131035 2.931034-2.9310345 2.931034"/><path d="m153.344828 49.9310345c-1.617931 0-2.931035-1.3131035-2.931035-2.9310345s1.313104-2.9310345 2.931035-2.9310345 2.931034 1.3131035 2.931034 2.9310345-1.313103 2.9310345-2.931034 2.9310345"/><path d="m12.6551724 49.9310345c-1.617931 0-2.93103447-1.3131035-2.93103447-2.9310345s1.31310347-2.9310345 2.93103447-2.9310345 2.9310345 1.3131035 2.9310345 2.9310345-1.3131035 2.9310345-2.9310345 2.9310345"/><path d="m153.344828 67.5172414c-1.617931 0-2.931035-1.3131035-2.931035-2.9310345s1.313104-2.9310345 2.931035-2.9310345 2.931034 1.3131035 2.931034 2.9310345-1.313103 2.9310345-2.931034 2.9310345"/><path d="m162.137931 58.7241379c-1.617931 0-2.931034-1.3131034-2.931034-2.9310345 0-1.617931 1.313103-2.9310344 2.931034-2.9310344s2.931035 1.3131034 2.931035 2.9310344c0 1.6179311-1.313104 2.9310345-2.931035 2.9310345"/><path d="m162.137931 76.3103448c-1.617931 0-2.931034-1.3131034-2.931034-2.9310345 0-1.617931 1.313103-2.9310344 2.931034-2.9310344s2.931035 1.3131034 2.931035 2.9310344c0 1.6179311-1.313104 2.9310345-2.931035 2.9310345"/><path d="m153.344828 85.1034483c-1.617931 0-2.931035-1.3131035-2.931035-2.9310345s1.313104-2.9310345 2.931035-2.9310345 2.931034 1.3131035 2.931034 2.9310345-1.313103 2.9310345-2.931034 2.9310345"/><path d="m12.6551724 67.5172414c-1.617931 0-2.93103447-1.3131035-2.93103447-2.9310345s1.31310347-2.9310345 2.93103447-2.9310345 2.9310345 1.3131035 2.9310345 2.9310345-1.3131035 2.9310345-2.9310345 2.9310345"/><path d="m3.86206897 58.7241379c-1.61793104 0-2.93103449-1.3131034-2.93103449-2.9310345 0-1.617931 1.31310345-2.9310344 2.93103449-2.9310344 1.61793103 0 2.93103448 1.3131034 2.93103448 2.9310344 0 1.6179311-1.31310345 2.9310345-2.93103448 2.9310345"/><path d="m153.344828 32.3448276c-1.617931 0-2.931035-1.3131035-2.931035-2.9310345s1.313104-2.9310345 2.931035-2.9310345 2.931034 1.3131035 2.931034 2.9310345-1.313103 2.9310345-2.931034 2.9310345"/><path d="m12.6551724 32.3448276c-1.617931 0-2.93103447-1.3131035-2.93103447-2.9310345s1.31310347-2.9310345 2.93103447-2.9310345 2.9310345 1.3131035 2.9310345 2.9310345-1.3131035 2.9310345-2.9310345 2.9310345"/><path d="m162.137931 41.137931c-1.617931 0-2.931034-1.3131034-2.931034-2.9310344 0-1.6179311 1.313103-2.9310345 2.931034-2.9310345s2.931035 1.3131034 2.931035 2.9310345c0 1.617931-1.313104 2.9310344-2.931035 2.9310344"/><path d="m3.86206897 41.137931c-1.61793104 0-2.93103449-1.3131034-2.93103449-2.9310344 0-1.6179311 1.31310345-2.9310345 2.93103449-2.9310345 1.61793103 0 2.93103448 1.3131034 2.93103448 2.9310345 0 1.617931-1.31310345 2.9310344-2.93103448 2.9310344"/><path d="m153.344828 14.7586207c-1.617931 0-2.931035-1.3131035-2.931035-2.9310345s1.313104-2.93103448 2.931035-2.93103448 2.931034 1.31310348 2.931034 2.93103448-1.313103 2.9310345-2.931034 2.9310345"/><path d="m135.758621 14.7586207c-1.617931 0-2.931035-1.3131035-2.931035-2.9310345s1.313104-2.93103448 2.931035-2.93103448 2.931034 1.31310348 2.931034 2.93103448-1.313103 2.9310345-2.931034 2.9310345"/><path d="m118.172414 14.7586207c-1.617931 0-2.931035-1.3131035-2.931035-2.9310345s1.313104-2.93103448 2.931035-2.93103448 2.931034 1.31310348 2.931034 2.93103448-1.313103 2.9310345-2.931034 2.9310345"/><path d="m100.586207 14.7586207c-1.6179311 0-2.9310346-1.3131035-2.9310346-2.9310345s1.3131035-2.93103448 2.9310346-2.93103448c1.617931 0 2.931034 1.31310348 2.931034 2.93103448s-1.313103 2.9310345-2.931034 2.9310345"/><path d="m83 14.7586207c-1.617931 0-2.9310345-1.3131035-2.9310345-2.9310345s1.3131035-2.93103448 2.9310345-2.93103448 2.9310345 1.31310348 2.9310345 2.93103448-1.3131035 2.9310345-2.9310345 2.9310345"/><path d="m65.4137931 14.7586207c-1.617931 0-2.9310345-1.3131035-2.9310345-2.9310345s1.3131035-2.93103448 2.9310345-2.93103448 2.9310345 1.31310348 2.9310345 2.93103448-1.3131035 2.9310345-2.9310345 2.9310345"/><path d="m47.8275862 14.7586207c-1.617931 0-2.9310345-1.3131035-2.9310345-2.9310345s1.3131035-2.93103448 2.9310345-2.93103448 2.9310345 1.31310348 2.9310345 2.93103448-1.3131035 2.9310345-2.9310345 2.9310345"/><path d="m30.2413793 14.7586207c-1.617931 0-2.9310345-1.3131035-2.9310345-2.9310345s1.3131035-2.93103448 2.9310345-2.93103448 2.9310345 1.31310348 2.9310345 2.93103448-1.3131035 2.9310345-2.9310345 2.9310345"/><path d="m12.6551724 14.7586207c-1.617931 0-2.93103447-1.3131035-2.93103447-2.9310345s1.31310347-2.93103448 2.93103447-2.93103448 2.9310345 1.31310348 2.9310345 2.93103448-1.3131035 2.9310345-2.9310345 2.9310345"/><path d="m162.137931 23.5517241c-1.617931 0-2.931034-1.3131034-2.931034-2.9310344 0-1.6179311 1.313103-2.9310345 2.931034-2.9310345s2.931035 1.3131034 2.931035 2.9310345c0 1.617931-1.313104 2.9310344-2.931035 2.9310344"/><path d="m3.86206897 23.5517241c-1.61793104 0-2.93103449-1.3131034-2.93103449-2.9310344 0-1.6179311 1.31310345-2.9310345 2.93103449-2.9310345 1.61793103 0 2.93103448 1.3131034 2.93103448 2.9310345 0 1.617931-1.31310345 2.9310344-2.93103448 2.9310344"/><path d="m162.137931 5.96551724c-1.617931 0-2.931034-1.31310345-2.931034-2.93103448 0-1.61793104 1.313103-2.93103448 2.931034-2.93103448s2.931035 1.31310344 2.931035 2.93103448c0 1.61793103-1.313104 2.93103448-2.931035 2.93103448"/><path d="m144.551724 5.96551724c-1.617931 0-2.931034-1.31310345-2.931034-2.93103448 0-1.61793104 1.313103-2.93103448 2.931034-2.93103448s2.931035 1.31310344 2.931035 2.93103448c0 1.61793103-1.313104 2.93103448-2.931035 2.93103448"/><path d="m126.965517 5.96551724c-1.617931 0-2.931034-1.31310345-2.931034-2.93103448 0-1.61793104 1.313103-2.93103448 2.931034-2.93103448s2.931035 1.31310344 2.931035 2.93103448c0 1.61793103-1.313104 2.93103448-2.931035 2.93103448"/><path d="m109.37931 5.96551724c-1.617931 0-2.931034-1.31310345-2.931034-2.93103448 0-1.61793104 1.313103-2.93103448 2.931034-2.93103448s2.931035 1.31310344 2.931035 2.93103448c0 1.61793103-1.313104 2.93103448-2.931035 2.93103448"/><path d="m91.7931034 5.96551724c-1.617931 0-2.9310344-1.31310345-2.9310344-2.93103448 0-1.61793104 1.3131034-2.93103448 2.9310344-2.93103448 1.6179311 0 2.9310345 1.31310344 2.9310345 2.93103448 0 1.61793103-1.3131034 2.93103448-2.9310345 2.93103448"/><path d="m74.2068966 5.96551724c-1.6179311 0-2.9310345-1.31310345-2.9310345-2.93103448 0-1.61793104 1.3131034-2.93103448 2.9310345-2.93103448 1.617931 0 2.9310344 1.31310344 2.9310344 2.93103448 0 1.61793103-1.3131034 2.93103448-2.9310344 2.93103448"/><path d="m56.6206897 5.96551724c-1.6179311 0-2.9310345-1.31310345-2.9310345-2.93103448 0-1.61793104 1.3131034-2.93103448 2.9310345-2.93103448 1.617931 0 2.9310344 1.31310344 2.9310344 2.93103448 0 1.61793103-1.3131034 2.93103448-2.9310344 2.93103448"/><path d="m39.0344828 5.96551724c-1.6179311 0-2.9310345-1.31310345-2.9310345-2.93103448 0-1.61793104 1.3131034-2.93103448 2.9310345-2.93103448 1.617931 0 2.9310344 1.31310344 2.9310344 2.93103448 0 1.61793103-1.3131034 2.93103448-2.9310344 2.93103448"/><path d="m21.4482759 5.96551724c-1.6179311 0-2.9310345-1.31310345-2.9310345-2.93103448 0-1.61793104 1.3131034-2.93103448 2.9310345-2.93103448 1.617931 0 2.9310344 1.31310344 2.9310344 2.93103448 0 1.61793103-1.3131034 2.93103448-2.9310344 2.93103448"/><path d="m3.86206897 5.96551724c-1.61793104 0-2.93103449-1.31310345-2.93103449-2.93103448 0-1.61793104 1.31310345-2.93103448 2.93103449-2.93103448 1.61793103 0 2.93103448 1.31310344 2.93103448 2.93103448 0 1.61793103-1.31310345 2.93103448-2.93103448 2.93103448"/><path d="m3.86206897 76.3103448c-1.61793104 0-2.93103449-1.3131034-2.93103449-2.9310345 0-1.617931 1.31310345-2.9310344 2.93103449-2.9310344 1.61793103 0 2.93103448 1.3131034 2.93103448 2.9310344 0 1.6179311-1.31310345 2.9310345-2.93103448 2.9310345"/><path d="m12.6551724 85.1034483c-1.617931 0-2.93103447-1.3131035-2.93103447-2.9310345s1.31310347-2.9310345 2.93103447-2.9310345 2.9310345 1.3131035 2.9310345 2.9310345-1.3131035 2.9310345-2.9310345 2.9310345"/><path d="m3.86206897 129.068966c-1.61793104 0-2.93103449-1.313104-2.93103449-2.931035s1.31310345-2.931034 2.93103449-2.931034c1.61793103 0 2.93103448 1.313103 2.93103448 2.931034s-1.31310345 2.931035-2.93103448 2.931035"/></g><g transform="translate(8 8)"><path d="m18.3793103 9.5862069c0 4.8567241-3.9363793 8.7931034-8.7931034 8.7931034-4.85672414 0-8.79310345-3.9363793-8.79310345-8.7931034 0-4.85672414 3.93637931-8.79310345 8.79310345-8.79310345 4.8567241 0 8.7931034 3.93637931 8.7931034 8.79310345z" fill="#e8dbf6"/><path d="m18.3793103 9.5862069c0 4.8567241-3.9363793 8.7931034-8.7931034 8.7931034-4.85672414 0-8.79310345-3.9363793-8.79310345-8.7931034 0-4.85672414 3.93637931-8.79310345 8.79310345-8.79310345 4.8567241 0 8.7931034 3.93637931 8.7931034 8.79310345z" stroke="#cdb0f1" stroke-linejoin="round" stroke-width="3"/><path d="m44.7586207 9.5862069c0 4.8567241-3.9363793 8.7931034-8.7931035 8.7931034-4.8567241 0-8.7931034-3.9363793-8.7931034-8.7931034 0-4.85672414 3.9363793-8.79310345 8.7931034-8.79310345 4.8567242 0 8.7931035 3.93637931 8.7931035 8.79310345z" fill="#e8dbf6"/><path d="m44.7586207 9.5862069c0 4.8567241-3.9363793 8.7931034-8.7931035 8.7931034-4.8567241 0-8.7931034-3.9363793-8.7931034-8.7931034 0-4.85672414 3.9363793-8.79310345 8.7931034-8.79310345 4.8567242 0 8.7931035 3.93637931 8.7931035 8.79310345z" stroke="#cdb0f1" stroke-linejoin="round" stroke-width="3"/><path d="m71.137931 9.5862069c0 4.8567241-3.9363793 8.7931034-8.7931034 8.7931034-4.8567242 0-8.7931035-3.9363793-8.7931035-8.7931034 0-4.85672414 3.9363793-8.79310345 8.7931035-8.79310345 4.8567241 0 8.7931034 3.93637931 8.7931034 8.79310345z" fill="#e8dbf6"/><path d="m71.137931 9.5862069c0 4.8567241-3.9363793 8.7931034-8.7931034 8.7931034-4.8567242 0-8.7931035-3.9363793-8.7931035-8.7931034 0-4.85672414 3.9363793-8.79310345 8.7931035-8.79310345 4.8567241 0 8.7931034 3.93637931 8.7931034 8.79310345z" stroke="#cdb0f1" stroke-linejoin="round" stroke-width="3"/></g></g></svg>