<svg height="10" viewBox="0 0 10 10" width="10" xmlns="http://www.w3.org/2000/svg"><path d="m12.5 12.625h1.25v-1.25h-1.25zm0 1.875h1.25v-1.25h-1.25zm1.875-1.875h1.25v-1.25h-1.25zm0 1.875h1.25v-1.25h-1.25zm1.875-1.875h1.25v-1.25h-1.25zm0 1.875h1.25v-1.25h-1.25zm2.5-3.75c0-.345-.28-.625-.625-.625h-6.25c-.345 0-.625.28-.625.625v4.375c0 .345.28.625.625.625h6.25c.345 0 .625-.28.625-.625zm0 6.25h-7.5c-.69 0-1.25-.559375-1.25-1.25v-7.5c0-.690625.56-1.25 1.25-1.25h1.25v.625c0 .345.28.625.625.625s.625-.28.625-.625v-.625h2.5v.625c0 .345.28.625.625.625s.625-.28.625-.625v-.625h1.25c.690625 0 1.25.559375 1.25 1.25v7.5c0 .690625-.559375 1.25-1.25 1.25z" fill="#3a465d" fill-rule="evenodd" transform="translate(-10 -7)"/></svg>