<svg height="15" viewBox="0 0 15 15" width="15" xmlns="http://www.w3.org/2000/svg"><path d="m6.875 11.25h1.25v-1.25h-1.25zm.625-10c-3.45 0-6.25 2.8-6.25 6.25s2.8 6.25 6.25 6.25 6.25-2.8 6.25-6.25-2.8-6.25-6.25-6.25zm0 11.25c-2.75625 0-5-2.24375-5-5s2.24375-5 5-5 5 2.24375 5 5-2.24375 5-5 5zm0-8.75c-1.38125 0-2.5 1.11875-2.5 2.5h1.25c0-.6875.5625-1.25 1.25-1.25s1.25.5625 1.25 1.25c0 1.25-1.875 1.09375-1.875 3.125h1.25c0-1.40625 1.875-1.5625 1.875-3.125 0-1.38125-1.11875-2.5-2.5-2.5z" fill="#7383a1" fill-rule="evenodd"/></svg>