<svg height="30" viewBox="0 0 30 30" width="30" xmlns="http://www.w3.org/2000/svg"><path d="m15 6.25c-4.8375 0-8.75 3.9125-8.75 8.75h2.5c0-3.45 2.8-6.25 6.25-6.25s6.25 2.8 6.25 6.25h2.5c0-4.8375-3.9125-8.75-8.75-8.75zm1.25 11.6125c1.1-.4875 1.875-1.575 1.875-2.8625 0-1.725-1.4-3.125-3.125-3.125s-3.125 1.4-3.125 3.125c0 1.275.775 2.375 1.875 2.8625v4.125l-4.2625 4.2625 1.7625 1.7625 3.75-3.75 3.75 3.75 1.7625-1.7625-4.2625-4.2625zm-1.25-16.6125c-7.5875 0-13.75 6.1625-13.75 13.75h2.5c0-6.2125 5.0375-11.25 11.25-11.25s11.25 5.0375 11.25 11.25h2.5c0-7.5875-6.1625-13.75-13.75-13.75z" fill="#fff" fill-rule="evenodd"/></svg>