<svg height="32" viewBox="0 0 32 32" width="32" xmlns="http://www.w3.org/2000/svg"><path d="m21.2 6.66666667c-.2266667 0-.4266667.12-.5466667.30666666l-.0933333.2-6.9066667 15.53333337c-.2133333.3866666-.3466666.8133333-.3466666 1.28 0 1.48 1.2 2.68 2.68 2.68 1.28 0 2.36-.9066667 2.6133333-2.12l.0133333-.04 3.2533334-17.17333337c0-.37333333-.2933334-.66666666-.6666667-.66666666zm-19.86666667 5.33333333 2.66666667 2.6666667c3.84-3.84 9.0533333-5.44000003 14.04-4.8266667l1.5866667-3.57333333c-6.44-1.14666667-13.3066667.76-18.29333337 5.73333333zm26.66666667 2.6666667 2.6666667-2.6666667c-2.1866667-2.18666667-4.7333334-3.76-7.4533334-4.76l-.7066666 3.76c2 .8266667 3.8666666 2.04 5.4933333 3.6666667zm-5.3333333 5.3333333 2.6666666-2.6666667c-1.0666666-1.0666666-2.2666666-1.8933333-3.5466666-2.52l-.7333334 3.8933334c.56.36 1.1066667.7866666 1.6133334 1.2933333zm-16.00000003-2.6666667 2.66666666 2.6666667c1.50666667-1.5066667 3.41333337-2.3866667 5.37333337-2.6666667l1.7066666-3.84c-3.5066666-.1066666-7.06666663 1.16-9.74666663 3.84z" fill="#3a465d" fill-rule="evenodd"/></svg>