<svg height="32" viewBox="0 0 32 32" width="32" xmlns="http://www.w3.org/2000/svg"><path d="m8 17.3333333c-.73333333 0-1.33333333.6-1.33333333 1.3333334 0 .7333333.6 1.3333333 1.33333333 1.3333333s1.33333333-.6 1.33333333-1.3333333c0-.7333334-.6-1.3333334-1.33333333-1.3333334zm0 5.3333334c-.73333333 0-1.33333333.6-1.33333333 1.3333333s.6 1.3333333 1.33333333 1.3333333 1.33333333-.6 1.33333333-1.3333333-.6-1.3333333-1.33333333-1.3333333zm0-10.6666667c-.73333333 0-1.33333333.6-1.33333333 1.3333333 0 .7333334.6 1.3333334 1.33333333 1.3333334s1.33333333-.6 1.33333333-1.3333334c0-.7333333-.6-1.3333333-1.33333333-1.3333333zm-4 .6666667c-.37333333 0-.66666667.2933333-.66666667.6666666 0 .3733334.29333334.6666667.66666667.6666667s.66666667-.2933333.66666667-.6666667c0-.3733333-.29333334-.6666666-.66666667-.6666666zm4-6.00000003c-.73333333 0-1.33333333.6-1.33333333 1.33333333s.6 1.33333333 1.33333333 1.33333333 1.33333333-.6 1.33333333-1.33333333-.6-1.33333333-1.33333333-1.33333333zm20 7.33333333c.3733333 0 .6666667-.2933333.6666667-.6666667 0-.3733333-.2933334-.6666666-.6666667-.6666666s-.6666667.2933333-.6666667.6666666c0 .3733334.2933334.6666667.6666667.6666667zm-9.3333333-4.66666667c.7333333 0 1.3333333-.6 1.3333333-1.33333333s-.6-1.33333333-1.3333333-1.33333333c-.7333334 0-1.3333334.6-1.3333334 1.33333333s.6 1.33333333 1.3333334 1.33333333zm0-4.66666666c.3733333 0 .6666666-.29333334.6666666-.66666667s-.2933333-.66666667-.6666666-.66666667c-.3733334 0-.6666667.29333334-.6666667.66666667s.2933333.66666667.6666667.66666667zm-14.6666667 13.33333333c-.37333333 0-.66666667.2933333-.66666667.6666667 0 .3733333.29333334.6666666.66666667.6666666s.66666667-.2933333.66666667-.6666666c0-.3733334-.29333334-.6666667-.66666667-.6666667zm9.3333333 9.3333333c-.3733333 0-.6666666.2933334-.6666666.6666667s.2933333.6666667.6666666.6666667c.3733334 0 .6666667-.2933334.6666667-.6666667s-.2933333-.6666667-.6666667-.6666667zm0-22.66666663c.3733334 0 .6666667-.29333334.6666667-.66666667s-.2933333-.66666667-.6666667-.66666667c-.3733333 0-.6666666.29333334-.6666666.66666667s.2933333.66666667.6666666.66666667zm0 4.66666666c.7333334 0 1.3333334-.6 1.3333334-1.33333333s-.6-1.33333333-1.3333334-1.33333333c-.7333333 0-1.3333333.6-1.3333333 1.33333333s.6 1.33333333 1.3333333 1.33333333zm0 7.33333337c-1.1066666 0-2 .8933333-2 2 0 1.1066666.8933334 2 2 2 1.1066667 0 2-.8933334 2-2 0-1.1066667-.8933333-2-2-2zm10.6666667.6666666c-.7333333 0-1.3333333.6-1.3333333 1.3333334 0 .7333333.6 1.3333333 1.3333333 1.3333333s1.3333333-.6 1.3333333-1.3333333c0-.7333334-.6-1.3333334-1.3333333-1.3333334zm0 5.3333334c-.7333333 0-1.3333333.6-1.3333333 1.3333333s.6 1.3333333 1.3333333 1.3333333 1.3333333-.6 1.3333333-1.3333333-.6-1.3333333-1.3333333-1.3333333zm0-10.6666667c-.7333333 0-1.3333333.6-1.3333333 1.3333333 0 .7333334.6 1.3333334 1.3333333 1.3333334s1.3333333-.6 1.3333333-1.3333334c0-.7333333-.6-1.3333333-1.3333333-1.3333333zm0-5.33333333c-.7333333 0-1.3333333.6-1.3333333 1.33333333s.6 1.33333333 1.3333333 1.33333333 1.3333333-.6 1.3333333-1.33333333-.6-1.33333333-1.3333333-1.33333333zm4 11.33333333c-.3733333 0-.6666667.2933333-.6666667.6666667 0 .3733333.2933334.6666666.6666667.6666666s.6666667-.2933333.6666667-.6666666c0-.3733334-.2933334-.6666667-.6666667-.6666667zm-9.3333333 4.6666667c-.7333334 0-1.3333334.6-1.3333334 1.3333333s.6 1.3333333 1.3333334 1.3333333c.7333333 0 1.3333333-.6 1.3333333-1.3333333s-.6-1.3333333-1.3333333-1.3333333zm0 4.6666666c-.3733334 0-.6666667.2933334-.6666667.6666667s.2933333.6666667.6666667.6666667c.3733333 0 .6666666-.2933334.6666666-.6666667s-.2933333-.6666667-.6666666-.6666667zm-5.3333334-16c-1.1066666 0-2 .8933334-2 2 0 1.1066667.8933334 2 2 2 1.1066667 0 2-.8933333 2-2 0-1.1066666-.8933333-2-2-2zm0 11.3333334c-.7333333 0-1.3333333.6-1.3333333 1.3333333s.6 1.3333333 1.3333333 1.3333333c.7333334 0 1.3333334-.6 1.3333334-1.3333333s-.6-1.3333333-1.3333334-1.3333333zm5.3333334-6c-1.1066667 0-2 .8933333-2 2 0 1.1066666.8933333 2 2 2 1.1066666 0 2-.8933334 2-2 0-1.1066667-.8933334-2-2-2zm0-5.3333334c-1.1066667 0-2 .8933334-2 2 0 1.1066667.8933333 2 2 2 1.1066666 0 2-.8933333 2-2 0-1.1066666-.8933334-2-2-2z" fill="#fff" fill-rule="evenodd"/></svg>