<svg height="16" viewBox="0 0 16 16" width="16" xmlns="http://www.w3.org/2000/svg"><path d="m.66666667 6h1.33333333v-1.33333333h-1.33333333zm0 2.66666667h1.33333333v-1.33333334h-1.33333333zm0-5.33333334h1.33333333v-1.33333333c-.73333333 0-1.33333333.6-1.33333333 1.33333333zm5.33333333 10.66666667h1.33333333v-1.3333333h-1.33333333zm-5.33333333-2.6666667h1.33333333v-1.3333333h-1.33333333zm1.33333333 2.6666667v-1.3333333h-1.33333333c0 .7333333.6 1.3333333 1.33333333 1.3333333zm12-12h-5.33333333v4h6.66666663v-2.66666667c0-.73333333-.6-1.33333333-1.3333333-1.33333333zm0 9.3333333h1.3333333v-1.3333333h-1.3333333zm-8-7.99999997h1.33333333v-1.33333333h-1.33333333zm-2.66666667 10.66666667h1.33333334v-1.3333333h-1.33333334zm0-10.66666667h1.33333334v-1.33333333h-1.33333334zm10.66666667 10.66666667c.7333333 0 1.3333333-.6 1.3333333-1.3333333h-1.3333333zm0-5.33333333h1.3333333v-1.33333334h-1.3333333zm-5.33333333 5.33333333h1.33333333v-1.3333333h-1.33333333zm2.66666663 0h1.3333334v-1.3333333h-1.3333334z" fill="#3a465d" fill-rule="evenodd"/></svg>