<svg height="16" viewBox="0 0 16 16" width="16" xmlns="http://www.w3.org/2000/svg"><path d="m9.72666667 5.33333333-1.72666667 1.72666667-1.72666667-1.72666667-.94.94 1.72666667 1.72666667-1.72666667 1.72666667.94.94000003 1.72666667-1.7266667 1.72666667 1.7266667.94000003-.94000003-1.7266667-1.72666667 1.7266667-1.72666667zm-1.72666667-4c-3.68666667 0-6.66666667 2.98-6.66666667 6.66666667 0 3.6866667 2.98 6.6666667 6.66666667 6.6666667 3.6866667 0 6.6666667-2.98 6.6666667-6.6666667 0-3.68666667-2.98-6.66666667-6.6666667-6.66666667zm0 11.99999997c-2.94 0-5.33333333-2.3933333-5.33333333-5.3333333s2.39333333-5.33333333 5.33333333-5.33333333 5.3333333 2.39333333 5.3333333 5.33333333-2.3933333 5.3333333-5.3333333 5.3333333z" fill="#fff" fill-rule="evenodd"/></svg>