<svg height="16" viewBox="0 0 16 16" width="16" xmlns="http://www.w3.org/2000/svg"><path d="m8 2.66666667v-2l-2.66666667 2.66666666 2.66666667 2.66666667v-2c2.2066667 0 4 1.79333333 4 4 0 .67333333-.1666667 1.31333333-.4666667 1.86666667l.9733334.97333333c.52-.82.8266666-1.79333333.8266666-2.84 0-2.94666667-2.3866666-5.33333333-5.3333333-5.33333333zm0 9.33333333c-2.20666667 0-4-1.7933333-4-4 0-.67333333.16666667-1.31333333.46666667-1.86666667l-.97333334-.97333333c-.52.82-.82666666 1.79333333-.82666666 2.84 0 2.9466667 2.38666666 5.3333333 5.33333333 5.3333333v2l2.6666667-2.6666666-2.6666667-2.6666667z" fill="#fff" fill-rule="evenodd"/></svg>