<svg height="16" viewBox="0 0 16 16" width="16" xmlns="http://www.w3.org/2000/svg"><path d="m8 4.66666667c1.84 0 3.3333333 1.49333333 3.3333333 3.33333333 0 .43333333-.0866666.84-.24 1.22l1.9466667 1.9466667c1.0066667-.84 1.8-1.9266667 2.2866667-3.1666667-1.1533334-2.92666667-4-5-7.33333337-5-.93333333 0-1.82666666.16666667-2.65333333.46666667l1.44 1.44c.38-.15333334.78666667-.24 1.22-.24zm-6.66666667-1.82 1.52 1.52.30666667.30666666c-1.10666667.86-1.97333333 2.00666667-2.49333333 3.32666667 1.15333333 2.9266667 4 5 7.33333333 5 1.03333333 0 2.02-.2 2.92-.56l.28.28 1.9533333 1.9466667.8466667-.8466667-11.82-11.82zm3.68666667 3.68666666 1.03333333 1.03333334c-.03333333.14-.05333333.28666666-.05333333.43333333 0 1.10666667.89333333 2 2 2 .14666667 0 .29333333-.02.43333333-.05333333l1.03333334 1.03333333c-.44666667.22-.94.3533333-1.46666667.3533333-1.84 0-3.33333333-1.4933333-3.33333333-3.3333333 0-.52666667.13333333-1.02.35333333-1.46666667zm2.87333333-.52 2.1 2.1.01333337-.10666666c0-1.10666667-.89333337-2-2.00000003-2z" fill="#fff" fill-rule="evenodd"/></svg>