<svg height="16" viewBox="0 0 16 16" width="16" xmlns="http://www.w3.org/2000/svg"><path d="m2.66666667 4h-1.33333334v9.3333333c0 .7333334.6 1.3333334 1.33333334 1.3333334h9.33333333v-1.3333334h-9.33333333zm10.66666663-2.66666667h-7.99999997c-.73333333 0-1.33333333.6-1.33333333 1.33333334v8.00000003c0 .7333333.6 1.3333333 1.33333333 1.3333333h7.99999997c.7333334 0 1.3333334-.6 1.3333334-1.3333333v-8.00000003c0-.73333334-.6-1.33333334-1.3333334-1.33333334zm-.6666666 6h-6.6666667v-1.33333333h6.6666667zm-2.6666667 2.66666667h-4v-1.33333333h4zm2.6666667-5.33333333h-6.6666667v-1.33333334h6.6666667z" fill="#fff" fill-rule="evenodd"/></svg>