<svg height="16" viewBox="0 0 16 16" width="16" xmlns="http://www.w3.org/2000/svg"><path d="m9.71429672 10.5714579h-3.42859344c-.47319446 0-.85716119-.3836587-.85716119-.85716118v-3.42859344c0-.47350249.38396673-.85716119.85716119-.85716119h3.42859344c.47319448 0 .85716118.3836587.85716118.85716119v3.42859344c-.0000513.47350248-.3839667.85716118-.85716118.85716118zm3.42854208 3.4285421h-10.28567761c-.47319446 0-.85716119-.3836587-.85716119-.8571612v-10.28567761c0-.47350249.38391539-.85716119.85716119-.85716119h10.28572891c.4731432 0 .8571099.3836587.8571099.85716119v10.28572891c0 .4734512-.3839667.8571099-.8571612.8571099zm-9.42856775-1.714271h8.57145795v-8.57145795h-8.57145795z" fill="#3a465d"/></svg>