<svg height="16" viewBox="0 0 16 16" width="16" xmlns="http://www.w3.org/2000/svg"><path d="m12.6666667 1.33333333h-2.7866667c-.28-.77333333-1.01333333-1.33333333-1.88-1.33333333s-1.6.56-1.88 1.33333333h-2.78666667c-.73333333 0-1.33333333.6-1.33333333 1.33333334v10.66666663c0 .7333334.6 1.3333334 1.33333333 1.3333334h9.33333337c.7333333 0 1.3333333-.6 1.3333333-1.3333334v-10.66666663c0-.73333334-.6-1.33333334-1.3333333-1.33333334zm-4.6666667 0c.36666667 0 .66666667.3.66666667.66666667s-.3.66666667-.66666667.66666667-.66666667-.3-.66666667-.66666667.3-.66666667.66666667-.66666667zm4.6666667 11.99999997h-9.33333337v-10.66666663h1.33333334v2h6.66666663v-2h1.3333334z" fill="#fff" fill-rule="evenodd"/></svg>