<svg height="16" viewBox="0 0 16 16" width="16" xmlns="http://www.w3.org/2000/svg"><path d="m13.3333333 5.33333333h-1.8733333c-.3-.52-.7133333-.96666666-1.2133333-1.30666666l1.0866666-1.08666667-.94-.94-1.44666663 1.44666667c-.30666667-.07333334-.62-.11333334-.94666667-.11333334s-.64.04-.94.11333334l-1.45333333-1.44666667-.94.94 1.08 1.08666667c-.49333334.34-.90666667.78666666-1.20666667 1.30666666h-1.87333333v1.33333334h1.39333333c-.03333333.22-.06.44-.06.66666666v.66666667h-1.33333333v1.33333333h1.33333333v.66666667c0 .2266667.02666667.4466667.06.6666667h-1.39333333v1.3333333h1.87333333c.69333333 1.1933333 1.98 2 3.46 2s2.7666667-.8066667 3.46-2h1.8733333v-1.3333333h-1.3933333c.0333333-.22.06-.44.06-.6666667v-.66666667h1.3333333v-1.33333333h-1.3333333v-.66666667c0-.22666666-.0266667-.44666666-.06-.66666666h1.3933333zm-3.99999997 5.33333337h-2.66666666v-1.33333337h2.66666666zm0-2.6666667h-2.66666666v-1.33333333h2.66666666z" fill="#fff" fill-rule="evenodd"/></svg>