<svg height="16" viewBox="0 0 16 16" width="16" xmlns="http://www.w3.org/2000/svg"><path d="m10.8284271 6.11438192-.94280902-.94280904-1.88561808 1.88561808-1.88561808-1.88561808-.94280904.94280904 1.88561808 1.88561808-1.88561808 1.88561808.94280904.94280902 1.88561808-1.88561806 1.88561808 1.88561806.94280902-.94280902-1.88561806-1.88561808zm-2.8284271-4.78104859c-3.68 0-6.66666667 2.98666667-6.66666667 6.66666667s2.98666667 6.6666667 6.66666667 6.6666667 6.6666667-2.9866667 6.6666667-6.6666667-2.9866667-6.66666667-6.6666667-6.66666667zm0 11.99999997c-2.94 0-5.33333333-2.3933333-5.33333333-5.3333333s2.39333333-5.33333333 5.33333333-5.33333333 5.3333333 2.39333333 5.3333333 5.33333333-2.3933333 5.3333333-5.3333333 5.3333333z" fill="#3a465d" fill-rule="evenodd"/></svg>