<svg height="16" viewBox="0 0 16 16" width="16" xmlns="http://www.w3.org/2000/svg"><path d="m9.33333333 8c0-.73333333-.6-1.33333333-1.33333333-1.33333333s-1.33333333.6-1.33333333 1.33333333.6 1.33333333 1.33333333 1.33333333 1.33333333-.6 1.33333333-1.33333333zm-1.33333333-6c-3.31333333 0-6 2.68666667-6 6h-2l2.66666667 2.6666667 2.66666666-2.6666667h-2c0-2.58 2.08666667-4.66666667 4.66666667-4.66666667s4.6666667 2.08666667 4.6666667 4.66666667-2.0866667 4.6666667-4.6666667 4.6666667c-1.00666667 0-1.94-.3266667-2.70666667-.8666667l-.94666666.96c1.01333333.7733333 2.28 1.24 3.65333333 1.24 3.3133333 0 6-2.6866667 6-6 0-3.31333333-2.6866667-6-6-6z" fill="#fff" fill-rule="evenodd"/></svg>