<svg height="16" viewBox="0 0 16 16" width="16" xmlns="http://www.w3.org/2000/svg"><path d="m1.33333333 8.33333333c0-2.02666666 1.64-3.66666666 3.66666667-3.66666666h7c1.4733333 0 2.6666667 1.19333333 2.6666667 2.66666666 0 1.47333334-1.1933334 2.66666667-2.6666667 2.66666667h-5.66666667c-.92 0-1.66666666-.74666667-1.66666666-1.66666667s.74666666-1.66666666 1.66666666-1.66666666h4.99999997v1.33333333h-5.05999997c-.36666666 0-.36666666.66666667 0 .66666667h5.72666667c.7333333 0 1.3333333-.6 1.3333333-1.33333334 0-.73333333-.6-1.33333333-1.3333333-1.33333333h-7c-1.28666667 0-2.33333333 1.04666667-2.33333333 2.33333333 0 1.28666667 1.04666666 2.33333337 2.33333333 2.33333337h6.3333333v1.3333333h-6.3333333c-2.02666667 0-3.66666667-1.64-3.66666667-3.66666667z" fill="#fff" fill-rule="evenodd"/></svg>